<svg xmlns="http://www.w3.org/2000/svg" xmlns:xlink="http://www.w3.org/1999/xlink" width="900" height="600" viewBox="0 0 900 600"><defs><style>.cls-1{fill:none;}.cls-2{fill:#fff;stroke:#000;stroke-miterlimit:10;}</style><symbol id="fire01" data-name="fire01" viewBox="0 0 300 300"><rect class="cls-1" width="300" height="300"/><polygon points="46 281 67 300 167 170 142 159 46 281"/><polygon points="261 272 248 296 133 197 141 169 261 272"/><polygon points="197 287 171 298 128 207 151.08 191.49 197 287"/><polygon points="103 281 123 296 160.5 220.67 140.78 206.09 103 281"/><path class="cls-2" d="M102.5,219.5s-3,16,13,16S130,217,127,210s-14-9-15-41S107,200,102.5,219.5Z"/><path class="cls-2" d="M151,225s33,2,29-27-14-20-12-48,14-82-10,7c0,0-8-16-5-34s-5-27-5-27,1,22-14,60S129,221,151,225Z"/><path class="cls-2" d="M199,242c-4.93.82-9-7-8-15s6-17,5-32c0,0,10,25,9,40C205,235,205,241,199,242Z"/></symbol><symbol id="fire02" data-name="fire02" viewBox="0 0 300 300"><rect class="cls-1" width="300" height="300"/><polygon points="45.5 280.5 66.5 299.5 166.5 169.5 141.5 158.5 45.5 280.5"/><polygon points="260.5 271.5 247.5 295.5 132.5 196.5 140.5 168.5 260.5 271.5"/><polygon points="196.5 286.5 170.5 297.5 127.5 206.5 150.58 190.99 196.5 286.5"/><polygon points="102.5 280.5 122.5 295.5 160 220.17 140.28 205.59 102.5 280.5"/><path class="cls-2" d="M102,219s-3,16,13,16,14.5-18.5,11.5-25.5-19-13-20-45S101.5,200.5,102,219Z"/><path class="cls-2" d="M150.5,224.5s33,2,29-27-8.7-27-7-55c1.64-27.06,28-95.44-10,7,0,0-17-13-14-31a94.33,94.33,0,0,0,0-32s-5,26-20,64S128.5,220.5,150.5,224.5Z"/><path class="cls-2" d="M198.5,241.5c-4.93.82-9-7-8-15s6-9,5-24c0,0,10,17,9,32C204.5,234.5,204.5,240.5,198.5,241.5Z"/></symbol><symbol id="fire03" data-name="fire03" viewBox="0 0 300 300"><rect class="cls-1" width="300" height="300"/><polygon points="45.5 280.5 66.5 299.5 166.5 169.5 141.5 158.5 45.5 280.5"/><polygon points="260.5 271.5 247.5 295.5 132.5 196.5 140.5 168.5 260.5 271.5"/><polygon points="196.5 286.5 170.5 297.5 127.5 206.5 150.58 190.99 196.5 286.5"/><polygon points="102.5 280.5 122.5 295.5 160 220.17 140.28 205.59 102.5 280.5"/><path class="cls-2" d="M102,219s-3,16,13,16,14.5-18.5,11.5-25.5-14-2-15-34S101.5,200.5,102,219Z"/><path class="cls-2" d="M150.5,224.5s33,2,29-27-5-13-3-41,24-97-14-7c0,0-6-13-3-31s-11-20-11-20,7,13-8,51S128.5,220.5,150.5,224.5Z"/><path class="cls-2" d="M198.5,241.5c-4.93.82-9-7-8-15s11-26,10-41c0,0,5,34,4,49C204.5,234.5,204.5,240.5,198.5,241.5Z"/></symbol><symbol id="wood" data-name="wood" viewBox="0 0 300 300"><rect class="cls-1" width="300" height="300"/><polygon points="44.5 280.5 65.5 299.5 165.5 169.5 140.5 158.5 44.5 280.5"/><polygon points="259.5 271.5 246.5 295.5 131.5 196.5 139.5 168.5 259.5 271.5"/><polygon points="195.5 286.5 169.5 297.5 126.5 206.5 149.58 190.99 195.5 286.5"/><polygon points="101.5 280.5 121.5 295.5 159 220.17 139.28 205.59 101.5 280.5"/></symbol></defs><title>fire_sprite</title><g id="Layer_2" data-name="Layer 2"><g id="sprite"><use width="300" height="300" xlink:href="#fire01"/><use width="300" height="300" transform="translate(300)" xlink:href="#fire02"/><use width="300" height="300" transform="translate(600)" xlink:href="#fire03"/><use width="300" height="300" transform="translate(0 300)" xlink:href="#wood"/></g></g></svg>
