<svg xmlns="http://www.w3.org/2000/svg" xmlns:xlink="http://www.w3.org/1999/xlink" width="1200" height="3200" viewBox="0 0 1200 3200"><defs><style>.cls-1{fill:none;}.cls-2{fill:#fff;}</style><symbol id="no_fire01" data-name="no_fire01" viewBox="0 0 300 400"><g id="no_fire01-3" data-name="no_fire01"><rect class="cls-1" width="300" height="400"/><path d="M179.9,216.92s29.14-.43,40.94-17.84c0,0,8.77,4,8.63,0s-1.87-9.92-1-14.82,5.75-26.32-2-37.69c0,0,13.81-.86,17.4-21.86A19.25,19.25,0,0,1,227,129.18s5-5.47,3.16-11.51c0,0-3.74,5.18-14.82,5a7.79,7.79,0,0,0,.14-7.34s-7.77,7.48-21.29,5.75-51.06.43-56.24,33.8,2.45,43.58,18.41,51.06l-11.65,12.8S99.25,234.29,94,304c0,0,3.12,41.63,10.41,52s20.81,41.63-48.91,3.64c0,0-3.65-2.88-7.32,3.93s5.5,34.08,13.63,34.08,22.27.52,11.14-8.13S60.8,378.82,60.8,378.82,92.25,393,99.86,394.55s47.71,16,29.62-41c0,0,30.82.55,43.55-5.45s27.82,41.26,27.82,41.26a10,10,0,0,0,8,5.94c11.53,1.77,39.39,1.11,25-9.5a48.26,48.26,0,0,0-16-2.12s-15-22.56-20.31-34.79c-5.76-13.16-3.18-17.32-26.64-19.43,0,0-19.57,3.09-30.17-2.21,0,0-15.9-37.11,23.33-66.79,0,0,17-12.72-.53-31.28Z"/><path d="M162.58,256s3.58,31.68,8.38,40.13S202,324.22,202,324.22s17.83,9.12,10.87,16.84-11.68-.76-16.42-7.16c0,0-15.84-14-23.54-19s-19.1-7.7-25.4-59.84S162.58,256,162.58,256Z"/><path class="cls-2" d="M210.85,179.47c7.73,3.79,11.3-3.86,11.3-3.86s-11.16-3.72-13.92-6.48C208.23,169.14,205,176.62,210.85,179.47Z"/><path d="M158.49,263.69s-7.9,39.88-5.7,46.77,9.35,41.47,17.87,46.75,12.07,7.85,8.31,14.93-5.68,5.74-15.46-8.69-12.7-23.48-17-33.53-11.09-11.64-3.26-73.6S158.49,263.69,158.49,263.69Z"/><path d="M189.44,390.78,179,365.9l-3.9,1.69L186,391.69s-1,7.63,4.18,5.7S191.38,392.38,189.44,390.78Z"/></g></symbol><symbol id="no_fire02" data-name="no_fire02" viewBox="0 0 300 400"><g id="no_fire02-3" data-name="no_fire02"><rect class="cls-1" width="300" height="400"/><path d="M179.9,216.92s29.14-.43,40.94-17.84c0,0,8.77,4,8.63,0s-1.87-9.92-1-14.82,5.75-26.32-2-37.69c0,0,13.81-.86,17.4-21.86A19.25,19.25,0,0,1,227,129.18s5-5.47,3.16-11.51c0,0-3.74,5.18-14.82,5a7.79,7.79,0,0,0,.14-7.34s-7.77,7.48-21.29,5.75-51.06.43-56.24,33.8,2.45,43.58,18.41,51.06l-11.65,12.8S99.25,234.29,94,304c0,0,3.12,41.63,10.41,52s20.81,41.63-48.91,3.64c0,0-3.65-2.88-7.32,3.93s5.5,34.08,13.63,34.08,22.27.52,11.14-8.13S60.8,378.82,60.8,378.82,92.25,393,99.86,394.55s47.71,16,29.62-41c0,0,30.82.55,43.55-5.45s27.82,41.26,27.82,41.26a10,10,0,0,0,8,5.94c11.53,1.77,39.39,1.11,25-9.5a48.26,48.26,0,0,0-16-2.12s-15-22.56-20.31-34.79c-5.76-13.16-3.18-17.32-26.64-19.43,0,0-19.57,3.09-30.17-2.21,0,0-15.9-37.11,23.33-66.79,0,0,17-12.72-.53-31.28Z"/><path d="M162.58,256s3.58,31.68,8.38,40.13S202,324.22,202,324.22s17.83,9.12,10.87,16.84-11.68-.76-16.42-7.16c0,0-15.84-14-23.54-19s-19.1-7.7-25.4-59.84S162.58,256,162.58,256Z"/><path class="cls-2" d="M210.85,179.47c7.73,3.79,11.3-3.86,11.3-3.86s-11.16-3.72-13.92-6.48C208.23,169.14,205,176.62,210.85,179.47Z"/><path d="M157.16,265.89s-2.85,40.55.19,47.12,14.47,40,23.57,44.15,13,6.28,10.11,13.78-4.91,6.4-16.42-6.69-15.54-21.71-21-31.14-12.46-10.16-12.44-72.61S157.16,265.89,157.16,265.89Z"/><path d="M201.83,387.72,187,365.19l-3.52,2.37,15.17,21.69s.42,7.68,5.16,4.83S204,388.94,201.83,387.72Z"/></g></symbol><symbol id="no_fire03" data-name="no_fire03" viewBox="0 0 300 400"><g id="no_fire03-3" data-name="no_fire03"><rect class="cls-1" width="300" height="400"/><path d="M179.9,216.92s29.14-.43,40.94-17.84c0,0,8.77,4,8.63,0s-1.87-9.92-1-14.82,5.75-26.32-2-37.69c0,0,13.81-.86,17.4-21.86A19.25,19.25,0,0,1,227,129.18s5-5.47,3.16-11.51c0,0-3.74,5.18-14.82,5a7.79,7.79,0,0,0,.14-7.34s-7.77,7.48-21.29,5.75-51.06.43-56.24,33.8,2.45,43.58,18.41,51.06l-11.65,12.8S99.25,234.29,94,304c0,0,3.12,41.63,10.41,52s20.81,41.63-48.91,3.64c0,0-3.65-2.88-7.32,3.93s5.5,34.08,13.63,34.08,22.27.52,11.14-8.13S60.8,378.82,60.8,378.82,92.25,393,99.86,394.55s47.71,16,29.62-41c0,0,30.82.55,43.55-5.45s27.82,41.26,27.82,41.26a10,10,0,0,0,8,5.94c11.53,1.77,39.39,1.11,25-9.5a48.26,48.26,0,0,0-16-2.12s-15-22.56-20.31-34.79c-5.76-13.16-3.18-17.32-26.64-19.43,0,0-19.57,3.09-30.17-2.21,0,0-15.9-37.11,23.33-66.79,0,0,17-12.72-.53-31.28Z"/><path d="M162.58,256s3.58,31.68,8.38,40.13S202,324.22,202,324.22s17.83,9.12,10.87,16.84-11.68-.76-16.42-7.16c0,0-15.84-14-23.54-19s-19.1-7.7-25.4-59.84S162.58,256,162.58,256Z"/><path class="cls-2" d="M210.85,179.47c7.73,3.79,11.3-3.86,11.3-3.86s-11.16-3.72-13.92-6.48C208.23,169.14,205,176.62,210.85,179.47Z"/><path d="M155.3,266.64s2.82,40.55,6.74,46.64,19.89,37.58,29.48,40.45,13.7,4.41,11.93,12.24-4,7-17.19-4.34-18.41-19.34-25.14-27.92-13.75-8.33-22.42-70.18S155.3,266.64,155.3,266.64Z"/><path d="M214.51,382.15l-14.84-22.54L196.14,362l15.17,21.69s.42,7.68,5.16,4.83S216.71,383.37,214.51,382.15Z"/></g></symbol><symbol id="no_fire04" data-name="no_fire04" viewBox="0 0 300 400"><g id="no_fire04-3" data-name="no_fire04"><rect class="cls-1" width="300" height="400"/><path d="M179.9,216.92s29.14-.43,40.94-17.84c0,0,8.77,4,8.63,0s-1.87-9.92-1-14.82,5.75-26.32-2-37.69c0,0,13.81-.86,17.4-21.86A19.25,19.25,0,0,1,227,129.18s5-5.47,3.16-11.51c0,0-3.74,5.18-14.82,5a7.79,7.79,0,0,0,.14-7.34s-7.77,7.48-21.29,5.75-51.06.43-56.24,33.8,2.45,43.58,18.41,51.06l-11.65,12.8S99.25,234.29,94,304c0,0,3.12,41.63,10.41,52s20.81,41.63-48.91,3.64c0,0-3.65-2.88-7.32,3.93s5.5,34.08,13.63,34.08,22.27.52,11.14-8.13S60.8,378.82,60.8,378.82,92.25,393,99.86,394.55s47.71,16,29.62-41c0,0,30.82.55,43.55-5.45s27.82,41.26,27.82,41.26a10,10,0,0,0,8,5.94c11.53,1.77,39.39,1.11,25-9.5a48.26,48.26,0,0,0-16-2.12s-15-22.56-20.31-34.79c-5.76-13.16-3.18-17.32-26.64-19.43,0,0-19.57,3.09-30.17-2.21,0,0-15.9-37.11,23.33-66.79,0,0,17-12.72-.53-31.28Z"/><path d="M162.58,256s3.58,31.68,8.38,40.13S202,324.22,202,324.22s17.83,9.12,10.87,16.84-11.68-.76-16.42-7.16c0,0-15.84-14-23.54-19s-19.1-7.7-25.4-59.84S162.58,256,162.58,256Z"/><path class="cls-2" d="M214.36,180.88c8.47-1.53,6.81-9.81,6.81-9.81s-11.2,3.62-15,3C206.12,174.11,208,182,214.36,180.88Z"/><path d="M153.17,266.56s7.59,39.93,12.21,45.51,24.19,35,34.06,36.68,14.12,2.76,13.29,10.74-3.12,7.44-17.58-2.28-20.57-17-28.26-24.75-14.64-6.64-30.56-67S153.17,266.56,153.17,266.56Z"/><path d="M212.73,359.49l7,2.42,4,7.77s-2.31,4.83,1.68,4.2,2.1-3.15,1.47-4.62-4.83-8.61-4.83-8.61l-1.91,1.07-.49-2.12L212,357.4Z"/></g></symbol><symbol id="try01" data-name="try01" viewBox="0 0 300 400"><g id="fire01"><rect class="cls-1" width="300" height="400"/><path d="M179.9,216.92s29.14-.43,40.94-17.84c0,0,8.77,4,8.63,0s-1.87-9.92-1-14.82,5.75-26.32-2-37.69c0,0,13.81-.86,17.4-21.86A19.25,19.25,0,0,1,227,129.18s5-5.47,3.16-11.51c0,0-3.74,5.18-14.82,5a7.79,7.79,0,0,0,.14-7.34s-7.77,7.48-21.29,5.75-51.06.43-56.24,33.8,2.45,43.58,18.41,51.06l-11.65,12.8S99.25,234.29,94,304c0,0,3.12,41.63,10.41,52s20.81,41.63-48.91,3.64c0,0-3.65-2.88-7.32,3.93s5.5,34.08,13.63,34.08,22.27.52,11.14-8.13S60.8,378.82,60.8,378.82,92.25,393,99.86,394.55s47.71,16,29.62-41c0,0,30.82.55,43.55-5.45s-6.36,43.68-6.36,43.68-3.71,5.89,8,5.94,39.39,1.11,25-9.5a48.26,48.26,0,0,0-16-2.12s12.19-22.26,10.6-35.52,1.59-31.28-23.33-23.86c0,0-19.61,5.83-30.22.53,0,0-15.9-37.11,23.33-66.79,0,0,17-12.72-.53-31.28Z"/><path d="M166.5,245.73s23.88,24.4,33.11,27.93,41.88,0,41.88,0,19.35-6,19.35,6-9.18,8.38-17,6.57c0,0-21.11.29-30.18,2s-19.34,8.18-59-31.66S166.5,245.73,166.5,245.73Z"/><path d="M279.3,279.69s-.66-9-5.27-10.62,0-4.61-5.93-4.61-11.25-.54-13.17,3.62-12.19,14.82-4.12,23.71,6.71-1.32,10,0-1.63-1,3.31,1.32,2.63,2.63,5.93,0S279.3,288.33,279.3,279.69Z"/><path d="M162,239.43s32,14.49,37.56,13.17,25.67-11.76,30.62-19.55,8.48-14.38,13.63-9.76,7.45,8.89-4.73,16.8-18.44,16.47-26.68,19.43-10.14,9.55-57.6-5.93S162,239.43,162,239.43Z"/><path class="cls-2" d="M210.85,179.47c7.73,3.79,11.3-3.86,11.3-3.86s-11.16-3.72-13.92-6.48C208.23,169.14,205,176.62,210.85,179.47Z"/><path d="M238,214.51s-7,5.67-5.69,10.4-3.78,2.64-.39,7.5,6,9.54,10.51,8.73,19.13,1.52,21.81-10.19-4.92-4.75-5.74-8.22.12,1.9-.82-3.47.65-3.67-3.39-4.86S245.08,209.57,238,214.51Z"/></g></symbol><symbol id="try02" data-name="try02" viewBox="0 0 300 400"><g id="fire02"><rect class="cls-1" width="300" height="400"/><path d="M179.9,216.92s29.14-.43,40.94-17.84c0,0,8.77,4,8.63,0s-1.87-9.92-1-14.82,5.75-26.32-2-37.69c0,0,13.81-.86,17.4-21.86A19.25,19.25,0,0,1,227,129.18s5-5.47,3.16-11.51c0,0-3.74,5.18-14.82,5a7.79,7.79,0,0,0,.14-7.34s-7.77,7.48-21.29,5.75-51.06.43-56.24,33.8,2.45,43.58,18.41,51.06l-11.65,12.8S99.25,234.29,94,304c0,0,3.12,41.63,10.41,52s20.81,41.63-48.91,3.64c0,0-3.65-2.88-7.32,3.93s5.5,34.08,13.63,34.08,22.27.52,11.14-8.13S60.8,378.82,60.8,378.82,92.25,393,99.86,394.55s47.71,16,29.62-41c0,0,30.82.55,43.55-5.45s-6.36,43.68-6.36,43.68-3.71,5.89,8,5.94,39.39,1.11,25-9.5a48.26,48.26,0,0,0-16-2.12s12.19-22.26,10.6-35.52,1.59-31.28-23.33-23.86c0,0-19.61,5.83-30.22.53,0,0-15.9-37.11,23.33-66.79,0,0,17-12.72-.53-31.28Z"/><path d="M165.92,246.95s24.74,23.53,34.08,26.73,41.85-1.5,41.85-1.5,19.12-6.67,19.55,5.34-8.87,8.71-16.74,7.17c0,0-21.09,1-30.09,3s-19,8.87-60-29.54S165.92,246.95,165.92,246.95Z"/><path d="M276.61,277.84s-.66-9-5.27-10.62,0-4.61-5.93-4.61-11.25-.54-13.17,3.62S240,281.06,248.12,290s6.71-1.32,10,0-1.63-1,3.31,1.32,2.63,2.63,5.93,0S276.61,286.48,276.61,277.84Z"/><path d="M168.61,241.81s26.45,23.09,32.18,23.43,28-3.87,34.95-9.91S248,244,251.59,249.91s4.58,10.66-9.37,14.72-22.41,10.46-31.14,10.93-12.46,6.23-53.46-22.26S168.61,241.81,168.61,241.81Z"/><path class="cls-2" d="M210.85,180.16c7.53,4.17,11.3-3.86,11.3-3.86s-11.16-3.72-13.92-6.48C208.23,169.83,204.21,176.49,210.85,180.16Z"/><path d="M235.59,245.39s-4,8.07-.83,11.82-2.34,4,2.78,7,9.43,6.17,13.2,3.55,18-6.61,15.56-18.36-6.45-2.26-8.65-5.08.9,1.68-2.19-2.81-.94-3.61-5.11-3S240,237.94,235.59,245.39Z"/></g></symbol><symbol id="try03" data-name="try03" viewBox="0 0 300 400"><g id="fire03"><rect class="cls-1" width="300" height="400"/><path d="M179.9,216.92s29.14-.43,40.94-17.84c0,0,8.77,4,8.63,0s-1.87-9.92-1-14.82,5.75-26.32-2-37.69c0,0,13.81-.86,17.4-21.86A19.25,19.25,0,0,1,227,129.18s5-5.47,3.16-11.51c0,0-3.74,5.18-14.82,5a7.79,7.79,0,0,0,.14-7.34s-7.77,7.48-21.29,5.75-51.06.43-56.24,33.8,2.45,43.58,18.41,51.06l-11.65,12.8S99.25,234.29,94,304c0,0,3.12,41.63,10.41,52s20.81,41.63-48.91,3.64c0,0-3.65-2.88-7.32,3.93s5.5,34.08,13.63,34.08,22.27.52,11.14-8.13S60.8,378.82,60.8,378.82,92.25,393,99.86,394.55s47.71,16,29.62-41c0,0,30.82.55,43.55-5.45s-6.36,43.68-6.36,43.68-3.71,5.89,8,5.94,39.39,1.11,25-9.5a48.26,48.26,0,0,0-16-2.12s12.19-22.26,10.6-35.52,1.59-31.28-23.33-23.86c0,0-19.61,5.83-30.22.53,0,0-15.9-37.11,23.33-66.79,0,0,17-12.72-.53-31.28Z"/><path d="M165.2,247.43s26.22,21.86,35.75,24.45,41.66-4.22,41.66-4.22,18.65-7.9,19.86,4.05S254.19,281,246.24,280c0,0-21,2.42-29.83,5S198,295,154.57,259.39,165.2,247.43,165.2,247.43Z"/><path d="M276.41,273.71s-.66-9-5.27-10.62,0-4.61-5.93-4.61S254,257.94,252,262.1s-12.19,14.82-4.12,23.71,6.71-1.32,10,0-1.63-1,3.31,1.32,2.63,2.63,5.93,0S276.41,282.35,276.41,273.71Z"/><path d="M166.13,261.09s17.23,30.6,22.51,32.83,27.66,5.69,36.25,2.33,15.34-6.58,16.76.18.75,11.58-13.75,10.75-24.61,2.38-33-.1-13.83,1.71-43-38.84S166.13,261.09,166.13,261.09Z"/><polygon points="260.63 295.94 266.96 295.02 268.81 298.71 262.58 296.86 260.63 295.94"/><polygon points="257.11 299.67 260.63 302.86 260.63 305.72 257.11 303.63 257.11 299.67"/><polygon points="249.42 304.4 245.06 307.02 243.85 311.63 248.5 307.02 249.42 304.4"/><polygon points="253.89 309.17 252.96 311.63 254.81 313.32 254.81 311.25 253.89 309.17"/><path class="cls-2" d="M221.34,176.95s-11.16-3.72-13.92-6.48c0,0-4.69,5.79,2.62,10.34S221.34,176.95,221.34,176.95Z"/><path d="M223.08,287.63s-3.66,8.22-.37,11.85-2.18,4.06,3,6.87,9.66,5.8,13.32,3,17.75-7.3,14.84-19-6.54-2-8.83-4.74,1,1.64-2.3-2.73-1.08-3.57-5.22-2.8S227.17,280,223.08,287.63Z"/></g></symbol><symbol id="try04" data-name="try04" viewBox="0 0 300 400"><g id="fire04"><rect class="cls-1" width="300" height="400"/><path d="M179.9,216.92s29.14-.43,40.94-17.84c0,0,8.77,4,8.63,0s-1.87-9.92-1-14.82,5.75-26.32-2-37.69c0,0,13.81-.86,17.4-21.86A19.25,19.25,0,0,1,227,129.18s5-5.47,3.16-11.51c0,0-3.74,5.18-14.82,5a7.79,7.79,0,0,0,.14-7.34s-7.77,7.48-21.29,5.75-51.06.43-56.24,33.8,2.45,43.58,18.41,51.06l-11.65,12.8S99.25,234.29,94,304c0,0,3.12,41.63,10.41,52s20.81,41.63-48.91,3.64c0,0-3.65-2.88-7.32,3.93s5.5,34.08,13.63,34.08,22.27.52,11.14-8.13S60.8,378.82,60.8,378.82,92.25,393,99.86,394.55s47.71,16,29.62-41c0,0,30.82.55,43.55-5.45s-6.36,43.68-6.36,43.68-3.71,5.89,8,5.94,39.39,1.11,25-9.5a48.26,48.26,0,0,0-16-2.12s12.19-22.26,10.6-35.52,1.59-31.28-23.33-23.86c0,0-19.61,5.83-30.22.53,0,0-15.9-37.11,23.33-66.79,0,0,17-12.72-.53-31.28Z"/><path d="M156.9,249s18.93,24.26,25.6,27.38,28.58-2.9,28.58-2.9,12.56-7.69,13.85,5.07-5.36,9.54-10.88,8.15c0,0-14.37,1.77-20.39,4.17s-12.32,10-43.64-29.55S156.9,249,156.9,249Z"/><path d="M240.87,278.81s-.66-9-5.27-10.62,0-4.61-5.93-4.61-11.25-.54-13.17,3.62-12.19,14.82-4.12,23.71,6.71-1.32,10,0-1.63-1,3.31,1.32,2.63,2.63,5.93,0S240.87,287.45,240.87,278.81Z"/><path d="M168.83,261.68s17.77,30.57,23.35,33.34,30.82,19.34,39.89,16.61,13.06-3.64,14.57,3.46-.63,7.62-15.94,5.51-22.65-5.7-31.51-9-14.59.57-45.33-43.78S168.83,261.68,168.83,261.68Z"/><path class="cls-2" d="M205.08,173.78s10.34.28,15.85,5c0,0,4.27-9.51-3.17-12.4S206.32,171,205.08,173.78Z"/><path d="M226.17,320.21s3.33,8.35,8.23,8.53,1.39,4.4,7,2.61,10.89-2.87,11.47-7.43,7.15-17.81-3.23-23.85-6,3.28-9.56,3,1.85.45-3.56-.26-3.31-1.72-5.65,1.79S223.56,312,226.17,320.21Z"/></g><polygon points="261.11 296.25 270.9 301.8 270.9 306.04 261.11 296.25"/><polygon points="266.01 314.91 273.19 331.79 276.77 325.62 266.01 309.63 266.01 314.91"/><polygon points="261.11 334.76 261.11 346.5 264.05 340.63 261.11 329.21 261.11 334.76"/><polygon points="274.49 340.96 282.65 346.5 282.65 353.03 274.49 340.96"/><polygon points="284.61 324.31 293.42 337.86 293.42 329.21 289.01 325.62 284.61 324.31"/><polygon points="287.22 306.04 293.42 306.04 295.7 309.63 287.22 306.04"/><polygon points="271.39 359.88 269.27 376.2 276.77 368.04 271.39 346.99 271.39 359.88"/></symbol><symbol id="die01" data-name="die01" viewBox="0 0 300 400"><path d="M194,256.17s-63.84,5.41-86.59,79.24S134,392.31,145.13,393s74.43.45,74.43.45,2.89,2.38,5-7.57S248,310.49,218,310.18s-20.09-23.07-13.43-32.51S215.07,254.09,194,256.17Z"/><path d="M209,239.4l-15,16.77,15,10.37,8.94-9.87s28.76,16.75,50.41,0,11.58-36.73,11.58-36.73,12.29-3.39,10.62-18.07c0,0-5,4.17-16.1,3.07,0,0-.57-5.31-3.06-8.48a10.27,10.27,0,0,1-8.54,8s-.62-5.48-3.39-6.37a6.73,6.73,0,0,1-3.44,5.57s-29.89-24.17-45.34-3.72S200.32,235,209,239.4Z"/><path d="M227.69,329.61s44.69-49.78-26.16-63.07l-10.36,11.23s43.34,14.5,25.21,47.31S227.69,329.61,227.69,329.61Z"/><rect class="cls-1" width="300" height="400"/></symbol><symbol id="die02" data-name="die02" viewBox="0 0 300 400"><path d="M194,277.4s-63.84,4.58-86.59,67S134,392.6,145.13,393.19s74.43.38,74.43.38,2.89,2,5-6.41S248,323.37,218,323.11s-20.09-19.52-13.43-27.51S215.07,275.65,194,277.4Z"/><path d="M192.51,281.73,177,301l15.47,11.93,9.2-11.35s29.59,19.26,51.87,0,11.92-42.24,11.92-42.24,12.64-3.9,10.93-20.78c0,0-5.14,4.8-16.56,3.53,0,0-.58-6.1-3.15-9.75,0,0-1.3,7.93-8.78,9.17,0,0-.63-6.31-3.49-7.33,0,0,0,4.26-3.54,6.4,0,0-30.76-27.8-46.66-4.28S183.57,276.63,192.51,281.73Z"/><path d="M212.82,357.19s59.19-61.76-34.65-78.26l-13.71,13.94s57.39,18,33.39,58.7S212.82,357.19,212.82,357.19Z"/><rect class="cls-1" width="300" height="400"/></symbol><symbol id="die03" data-name="die03" viewBox="0 0 300 400.69"><path d="M194,298.25s-63.84,3.79-86.59,55.47,26.64,39.84,37.75,40.32,74.43.31,74.43.31,2.89,1.67,5-5.3,23.45-52.78-6.64-53-20.09-16.15-13.43-22.76S215.07,296.8,194,298.25Z"/><path d="M174.71,318.45l-23.4,8L158,344.8l13.85-4.65s14.66,32.12,43.79,27.81,32.71-29.27,32.71-29.27,12.76,3.48,20.37-11.69c0,0-6.91,1.3-15.88-5.9,0,0,2.78-5.47,2.57-9.92,0,0-5.35,6-12.33,3,0,0,2.85-5.67,1-8.05,0,0-2.29,3.59-6.42,3.5,0,0-11.06-40-37.09-28.62S169.89,309.35,174.71,318.45Z"/><rect class="cls-1" width="300" height="400.69"/></symbol><symbol id="die04" data-name="die04" viewBox="0 0 300 400"><path d="M194,302.4s-63.84,3.62-86.59,53.1,26.64,38.13,37.75,38.59,74.43.3,74.43.3,2.89,1.6,5-5.07S248,338.8,218,338.59s-20.09-15.46-13.43-21.78S215.07,301,194,302.4Z"/><path d="M179,343.28l-23.4,8,6.66,18.36L176.11,365s14.66,32.12,43.79,27.81,32.71-29.27,32.71-29.27S265.36,367,273,351.84c0,0-6.91,1.3-15.88-5.9,0,0,2.78-5.47,2.57-9.92,0,0-5.35,6-12.33,3,0,0,2.85-5.67,1-8.05,0,0-2.29,3.59-6.42,3.5,0,0-11.06-40-37.09-28.62S174.18,334.18,179,343.28Z"/><rect class="cls-1" width="300" height="400"/></symbol><symbol id="wait01" data-name="wait01" viewBox="0 0 300 400"><g id="wait01-3" data-name="wait01"><rect class="cls-1" width="300" height="400"/><path d="M195.65,89.69s11.82-15.78,8.86-30.12c0,0-7.38,11.47-23.63,17.21,0,0,4.43-10-3-17.21,0,0-3,12.91-17.72,20.08,0,0,3-4.3-4.43-11.47,0,0-1.48,8.61-22.15,22.95S93.74,108.34,96.7,138.46s23.63,31.56,44.31,33l.2,4.92S114,180.14,110.39,200l.63,70s-8.08,19.51,2.12,18.12c15.43-2.11,10.15-17.35,10.15-17.35,3.17-23.53,5.55-34,5.55-34L123.34,221l-4.71,84.75s6.28,28.18-34.15,78.81c0,0-9,8.9,28.26,8.92,31.75,0-9.61-10.88-12.56-10.88,0,0,38.47-23.23,44.31-73.4,0,0,23.59,14.91,14.71,82.22,0,0,21.89,3.2,37.34,1.61,0,0,13.35-8.11-22-10,0,0,17.46-45.95-5.6-83.31L171.23,224,189.9,269.9s1.67,20.74,16,12.37c6.81-4,2.62-14.26-3-18.58-2.55-2-9.61-17.82-17.91-65.94-4.34-25.18-24.58-20-24.58-20l2.75-7.79s47.26-10,47.26-41.6S198.61,91.12,195.65,89.69Z"/><path class="cls-2" d="M197.41,117s.85,10.54-10.38,10.74-10.38-9.15-10.38-9.15S188.58,120.17,197.41,117Z"/><path class="cls-2" d="M154.37,119.37s-1.58,11.34-10.27,11.54-10.27-9.75-10.27-9.75S144.68,124.35,154.37,119.37Z"/></g></symbol><symbol id="wait02" data-name="wait02" viewBox="0 0 300 400"><g id="wait02-3" data-name="wait02"><rect class="cls-1" width="300" height="400"/><path d="M217.36,102.56s11.82-15.78,8.86-30.12c0,0-7.38,11.47-23.63,17.21,0,0,4.43-10-3-17.21,0,0-3,12.91-17.72,20.08,0,0,3-4.3-4.43-11.47,0,0-1.48,8.61-22.15,22.95s-39.88,17.21-36.92,47.33,23.63,31.56,44.31,33l.2,4.92s-38,12-41.59,31.84l-.84,71.83S112.4,312.43,122.6,311c15.43-2.11,10.15-17.35,10.15-17.35a154,154,0,0,0-.6-43.77l2.28-10.79L118,316.89s58.59,32.38-33.53,67.64c0,0-9,8.9,28.26,8.92,31.75,0,4.78-10.24,1.83-10.24,0,0,56.16-14.78,40-59.57,0,0,47,17.34,4.6,67.75,0,0,21.89,3.2,37.34,1.61,0,0,18.37-7.77-17-9.68,0,0,46.05-48.9,1.72-70l14.76-76.86,23.22,61.5s1.67,20.74,16,12.37c6.81-4,2.62-14.26-3-18.58-2.55-2-2.17-8.76-10.47-56.88-4.34-25.18-39.71-44.17-39.71-44.17l2.75-7.79s47.26-10,47.26-41.6S220.31,104,217.36,102.56Z"/><path class="cls-2" d="M224.74,130.32s.85,10.54-10.38,10.74S204,131.91,204,131.91,215.91,133.5,224.74,130.32Z"/><path class="cls-2" d="M181.7,132.71s-1.58,11.34-10.27,11.54-10.27-9.75-10.27-9.75S172,137.68,181.7,132.71Z"/></g></symbol><symbol id="wait03" data-name="wait03" viewBox="0 0 300 400"><g id="wait03-3" data-name="wait03"><g id="Layer_20" data-name="Layer 20"><path d="M132.14,387.75c1.62,2.7,25,4.5,25,4.5s15.74-.54,4-7.2l-12.33-4,25.25-24.83s23.57-25.91-25.55-20.69c0,0,58.12,5.2,47.71,22.68S179.85,383,179.85,383s31.79,3,16.69,10l-37.23-1.83,18.53-27.23s9.9-6.78-27-10.2S130.7,323.5,130.7,323.5s-2.36-63.17,48.52-102.43c0,0,9.16-4.66,15.26-4.66s52.67,16,31.17,41.35-46.55,75.17-46.55,75.17l-15.65,17.81Z"/><polygon points="144.86 335.04 173.19 329.61 176.82 338.48 181.43 344.08 178.01 357.54 167.16 357.54 150.88 351.11 144.86 335.04"/><polygon points="155.31 385.88 172.39 385.88 176.41 390.9 151.66 391.74 155.31 385.88"/><path d="M230.07,250.71s33.42,30.6,18.15,59.85c0,0,10.35,11.28-.49,14.6s-15.28,4-11.34-11.87-3.65-47.86-22-55.52S230.07,250.71,230.07,250.71Z"/><path d="M191,262.79c4,34.15,29.12,54.1,29.12,54.1s19.11,10.11,4.63,20.46-15.21-9.1-15.83-12.19-32.51-38.44-32.51-38.44Z"/><path d="M196,213.37s-43.83-7.91-36.1-41.81,17.23-25.5,46.3-38.21,26.6-17.6,26.6-17.6,5,5.9,1.84,12.16c0,0,12.4-.41,21.65-15.76,0,0,7.65,7.41-.85,17.44,0,0,10.41,1.58,26.8-11.68,0,0,2.69,11.56-15.18,27.48,0,0,15,10.28,6,41S218,216.78,218,216.78L211,232.07l-19.94-3.72Z"/><rect class="cls-1" width="300" height="400"/></g><path class="cls-2" d="M271.61,179.84s-5.23,9.2-14.63,3-3.44-13.41-3.44-13.41S262.52,177.51,271.61,179.84Z"/><path class="cls-2" d="M227.24,164.84s-.54,11.44-9.17,12.43S207,168.5,207,168.5,218,170.68,227.24,164.84Z"/></g></symbol><symbol id="wait04" data-name="wait04" viewBox="0 0 300 400"><g id="wait04-3" data-name="wait04"><rect class="cls-1" width="300" height="400"/><g id="Layer_20_copy" data-name="Layer 20 copy"><path d="M197.93,235.54s-42.28-14-29.85-46.48,20.65-22.82,51.23-31.3,28.82-13.68,28.82-13.68,4.09,6.54.11,12.3c0,0,12.34,1.34,23.66-12.55,0,0,6.53,8.42-3.3,17.15,0,0,10.08,3,28.18-7.79,0,0,1,11.82-18.9,25.07,0,0,13.44,12.3.18,41.45S219.17,242,219.17,242l-9,14.17L191,249.67Z"/><path d="M106,334s-26.23,59.5,27.27,59c0,0,14.35,3.65,28.23-20.27s55-62.52,41.75-25.36S185.46,389,185.46,389s-6.22,8.41,16.27,4.21,22.49-6.6,22.49-6.6,10.91-12.22-17.26-3.35c0,0,13.77-21.53,19.34-35.88s15.5-35.67-14.58-38.89S150,340.35,150,340.35Z"/><path d="M168.24,383.73s58.37,5,14.83,10.65-35.65-5.32-35.65-5.32l29-43.6s13.84-13.87-21.56,0-10-24.45-10-24.45,16.93-10.66,34.3-13.68,27.43-8.69,29.82,17.83S168.24,383.73,168.24,383.73Z"/><path d="M193.6,238.89c-1.44,0-72.72,29.06-87.55,95.09s58.42-6.89,58.42-6.89L207,273.29S239,239.49,193.6,238.89Z"/><path d="M239,343.06s12.92,9.09,0,14.35-14.63-5.24-12.75-10,29.89-78-19.34-79.9,7.7-20,7.7-20S279.23,264.6,239,343.06Z"/><path d="M179.1,266s6.84,59.33,69,69.38c0,0,22.49,4.94,11.48,14.91s-17.7-1-20.57-7.25c0,0-66.54-23.84-73-56.35C161.78,265.47,179.1,266,179.1,266Z"/></g><path class="cls-2" d="M279.94,207.58s-3.53,6.53-11.9,1S264,198.07,264,198.07,272.17,205,279.94,207.58Z"/><path class="cls-2" d="M244.92,196.47s-.79,8.76-9.42,9.71a9.87,9.87,0,0,1-10.91-6.47S235.61,201.14,244.92,196.47Z"/></g></symbol><symbol id="sad-2" data-name="sad" viewBox="0 0 300 400"><rect class="cls-1" width="300" height="400"/><path d="M190.7,75.22s11.82-15.78,8.86-30.12c0,0-7.38,11.47-23.63,17.21,0,0,4.43-10-3-17.21,0,0-3,12.91-17.72,20.08,0,0,3-4.3-4.43-11.47,0,0-1.48,8.61-22.15,22.95S88.79,93.86,91.74,124s23.63,31.56,44.31,33l.2,4.92s-22,1.82-27.91,21.9L92.17,269.33S83,286.4,94.29,287.45c15.51,1.43,10.15-17.35,10.15-17.35,3.17-23.53,7.24-32.33,7.24-32.33l-1.22-18.5,4.43,67.41s4.43,41.6-22.15,99c0,0-8.86,10,34,7.17s-13.05-12.21-16-12.21c0,0,25.39-34.46,31.23-84.63,0,0,14.7,28.26,17.27,95.4,0,0,21.89,3.2,37.34,1.61,0,0,13.35-8.11-22-10,0,0,5-63.91-8.29-89.73l-2.7-74,6.61,57.9s1.67,20.74,16,12.37c6.81-4,2.62-14.26-3-18.58-2.55-2-.81-25,1.81-73.2,2.43-44.62-29.54-34.42-29.54-34.42l2.75-7.79s47.26-10,47.26-41.6S193.65,76.65,190.7,75.22Z"/><path class="cls-2" d="M200.46,110s-1.15,10.52-12.22,8.59-8.47-10.94-8.47-10.94S191.19,111.45,200.46,110Z"/><path class="cls-2" d="M155.71,109s0,11.45-8.6,12.83-11.51-8.25-11.51-8.25S146.79,115.23,155.71,109Z"/></symbol><symbol id="happy-2" data-name="happy" viewBox="0 0 300 400"><rect class="cls-1" width="300" height="400"/><path d="M190.9,62.93s11.82-15.78,8.86-30.12c0,0-7.38,11.47-23.63,17.21,0,0,4.43-10-3-17.21,0,0-3,12.91-17.72,20.08,0,0,3-4.3-4.43-11.47,0,0-1.48,8.61-22.15,22.95S89,81.57,91.95,111.69s23.63,31.56,44.31,33V161.9s-17.72,1.43-23.63,21.52L84.56,262.3S62.29,289,87.4,290.42,103.76,268,103.76,268l13.29-48.77h0l4.43,67.41s4.43,41.6-22.15,99c0,0-8.86,10,34,7.17s-13.05-12.21-16-12.21c0,0,25.39-34.46,31.23-84.63,0,0,14.7,28.26,17.27,95.4,0,0,21.89,3.2,37.34,1.61,0,0,13.35-8.11-22-10,0,0,5-63.91-8.29-89.73l-4.12-46.73,19.2,24.38s4.37,21.75,22.09,11.71-7.32-21.75-8.8-24.62S180.56,242.22,185,197.76s-29.54-34.42-29.54-34.42l3-20.08s47.26-10,47.26-41.6S193.86,64.36,190.9,62.93Z"/><path class="cls-2" d="M179.09,93.12s-.77-11,10.74-10.83,9.93,10.83,9.93,10.83A51.68,51.68,0,0,0,179.09,93.12Z"/><path class="cls-2" d="M156.79,93.12s.66-11-10-10.83-10.54,9.32-10.54,9.32S149.43,89.6,156.79,93.12Z"/></symbol><symbol id="pr01" data-name="pr01" viewBox="0 0 300 400"><rect class="cls-1" width="300" height="400"/><path d="M159.5,142.5s26-7,34-28c0,0,10,2,8-3s-4-8-5-15-1-24-12-34c0,0,14-6,11-26,0,0-4,8-15,9,0,0,3-7,0-12,0,0-1,5-13,9a7.83,7.83,0,0,0-2-7s-4,8-18,11-47,14-46,43,12.71,45.72,35.71,49.72L128.5,156.5s-24,50-17,110c0,0,2,62-55,84,0,0-5,3-2,9s14,32,14,32,6,6,11,6-4-33-4-33,51-35,58-68c0,0,38,39,42,87,0,0,2,7,8,3s55-25,29-28c0,0-2-2-24,10,0,0-11-67-30-82,0,0-13-84-2-105,0,0,3-17-7-22Z"/><path d="M154,170s9,75,27,95,5,20,4,20-13,7-15-15c0,0-35-54-33-82S154,170,154,170Z"/><path d="M126,162S89,210,81,264c0,0-14,18-2,24s14-15,14-19,12.49-40.49,25-53C118,216,164,173,126,162Z"/><ellipse class="cls-2" cx="181.07" cy="93.28" rx="9" ry="8.75"/></symbol><symbol id="pr02" data-name="pr02" viewBox="0 0 300 400"><rect class="cls-1" width="300" height="400"/><path d="M149.68,163.55l12.63-13.82s26.43-7.66,34-28c0,0,10.33,2.61,8-3a99,99,0,0,1-5-15c-1.34-5.3.2-25.07-12-34,0,0,13.83-5.59,11-26,0,0-3.38,6.68-15,9,0,0,3.22-7.5,0-12,0,0-2.72,5.71-13,9a7,7,0,0,0-2-7s-4.39,8.13-18,11-46.82,12.53-46,43,14.5,48.4,35.42,49.78L129.67,160.2s-3.69.71-5.55,6.62S102,223.29,111.5,266.5L117.31,318s.31,10.67-3.14,18.27-18.4,21.51-18.4,21.51-2.67,4,.45,7.56,35.33,31.37,27.94,12.26A92,92,0,0,0,111,362.31s15.71-13.17,18-19.06c3.78-9.8,11.86-25.16,10.45-38.32-1.36-12.69,11.08,42.8,0,74.92,0,0-6.91,13.12,4.14,14.16s58,7.09,33.16-8.12a100.07,100.07,0,0,0-22.46-2.59s24.52-62.23,1.73-97.24c0,0-10.49-65.76.37-98.45C156.36,187.61,160.5,167.16,149.68,163.55Z"/><path d="M155.91,172.09s-2.07,75.51,12.8,97.93,2,20.52,1,20.37-13.88,5-12.64-17c0,0-26.72-58.54-20.64-85.95S155.91,172.09,155.91,172.09Z"/><path d="M127.17,162S99.58,216,101.6,270.51c0,0-10.47,20.26,2.43,24s11-17.31,10.28-21.24,4.87-42.09,14.87-56.68C129.19,216.55,166.54,165.86,127.17,162Z"/><ellipse class="cls-2" cx="182.19" cy="102.57" rx="9" ry="8.75"/></symbol><symbol id="pr03" data-name="pr03" viewBox="0 0 300 400"><rect class="cls-1" width="300" height="400"/><path d="M159.95,142.45s26.81-8,33.9-28c0,0,9.82,1.82,8-2.62s-4.55-10.91-5-15.29-.84-25.06-12-34c0,0,13.9-5.62,11-26,0,0-5.22,8.8-15,9,0,0,3.31-7.1,0-12,0,0-1.74,5.49-13,9,0,0,.79-5-2-7,0,0-4.55,8.1-18,11s-46.5,12.39-46,43,15.76,48.08,35.42,49.72l-8.42,17.28s-27.58,60.85-17,110c0,0,5.55,18.71,26.49,54.9,0,0,5.46,4.31,1.44,13.52-5,11.44-13.77,20.77-13.77,20.77s-3.26,2.33,1.63,5.93c7.15,5.28,31.73,29.37,24.34,8.72a59.16,59.16,0,0,0-12.5-12.23s29.15-22.94,12.5-70.72c0,0-3.62-90.51,4.87-105.9,0,0,4.47-15.23-7-22Z"/><path d="M130.65,387.48c20.06,14.16-47.2,8.39-47.2,8.39S134,330.58,120.39,283.39c-9.2-31.76,25.14,4.39,25.14,4.39s-3.92,56.57-38.47,96.4C107.06,384.18,124.71,383.28,130.65,387.48Z"/><ellipse class="cls-2" cx="180.52" cy="94.14" rx="9" ry="8.75"/></symbol><symbol id="pr04" data-name="pr04" viewBox="0 0 300 400"><rect class="cls-1" width="300" height="400"/><path d="M151.95,156.47l14-19.95s26.56-7.3,34-28.09c0,0,10,1.77,8-2.91s-4.64-10.73-5-15-1.51-25.82-12-34c0,0,13.45-5.21,11-26a19.46,19.46,0,0,1-15,9s3.14-6.38,0-12c0,0-2.77,6.17-13,9,0,0,.77-5.19-2-7,0,0-5.2,8.82-18,11s-46.77,13.13-46,43,12.46,47.86,32,49l-8.06,15.73-4.53,3.68s-26.78,72.77-15.51,114.58c0,0,13.4,32,36.65,48.24a24.79,24.79,0,0,1,3.48,12.91c0,7.8.87,20.61-.84,37.47,0,0-1.37,4.18,1.61,5.34s39.92,19.23,32.16,3.85c0,0-12.52-8.85-21.54-10.69,0,0,15.49-47.29-5.14-76.61,0,0-12.06-84.3-1.38-105.51C156.82,181.5,163.08,164.07,151.95,156.47Z"/><path d="M120.46,273.35s-4.47,62.81-46,101.17c0,0-4.08,2.62-1.13,6S85,391.93,88.95,396.28s19,2.49,19,2.49,10.34-.94-19.73-20c0,0,53-50,55.61-85.62S120.46,273.35,120.46,273.35Z"/><path d="M158.88,167.48s-5.86,75.31,7.88,98.45,1,20.59,0,20.4-14.12,4.32-11.77-17.65c0,0-23.75-59.81-16.31-86.87S158.88,167.48,158.88,167.48Z"/><path d="M127.49,159.08S99.9,213,101.92,267.6c0,0-10.47,20.26,2.43,24s11-17.31,10.28-21.24,4.86-42.09,14.87-56.68C129.51,213.63,166.86,162.94,127.49,159.08Z"/><ellipse class="cls-2" cx="182.52" cy="84.53" rx="9" ry="8.75"/></symbol></defs><title>protagonist_sprite</title><g id="Layer_2" data-name="Layer 2"><g id="no_fire"><use width="300" height="400" transform="translate(0 2800)" xlink:href="#no_fire01"/><use width="300" height="400" transform="translate(300 2800)" xlink:href="#no_fire02"/><use width="300" height="400" transform="translate(600 2800)" xlink:href="#no_fire03"/><use width="300" height="400" transform="translate(900 2800)" xlink:href="#no_fire04"/></g><g id="try_cycle"><use width="300" height="400" transform="translate(0 2400)" xlink:href="#try01"/><use width="300" height="400" transform="translate(300 2400)" xlink:href="#try02"/><use width="300" height="400" transform="translate(600 2400)" xlink:href="#try03"/><use width="300" height="400" transform="translate(900 2400)" xlink:href="#try04"/></g><g id="die"><use width="300" height="400" transform="translate(0 2000)" xlink:href="#die01"/><use width="300" height="400" transform="translate(300 2000)" xlink:href="#die02"/><use width="300" height="400.69" transform="translate(600 1999.31)" xlink:href="#die03"/><use width="300" height="400" transform="translate(900 2000)" xlink:href="#die04"/></g><g id="wait"><g id="sprite"><use width="300" height="400" transform="translate(0 1600)" xlink:href="#wait01"/><use width="300" height="400" transform="translate(300 1600)" xlink:href="#wait02"/><use width="300" height="400" transform="translate(600 1600)" xlink:href="#wait03"/><use width="300" height="400" transform="translate(900 1600)" xlink:href="#wait04"/></g></g><g id="sad"><use width="300" height="400" transform="translate(0 800)" xlink:href="#sad-2"/></g><g id="happy"><use width="300" height="400" transform="translate(0 1200)" xlink:href="#happy-2"/></g><g id="fire_sprite"><g id="fire01-2" data-name="fire01"><rect class="cls-1" y="400" width="300" height="400"/><path d="M179.9,616.92s29.14-.43,40.94-17.84c0,0,8.77,4,8.63,0s-1.87-9.92-1-14.82,5.75-26.32-2-37.69c0,0,13.81-.86,17.4-21.86A19.25,19.25,0,0,1,227,529.18s5-5.47,3.16-11.51c0,0-3.74,5.18-14.82,5a7.79,7.79,0,0,0,.14-7.34s-7.77,7.48-21.29,5.75-51.06.43-56.24,33.8,2.45,43.58,18.41,51.06l-11.65,12.8S99.25,634.29,94,704c0,0,3.12,41.63,10.41,52s20.81,41.63-48.91,3.64c0,0-3.65-2.88-7.32,3.93s5.5,34.08,13.63,34.08,22.27.52,11.14-8.13S60.8,778.82,60.8,778.82,92.25,793,99.86,794.55s47.71,16,29.62-41c0,0,30.82.55,43.55-5.45s-6.36,43.68-6.36,43.68-3.71,5.89,8,5.94,39.39,1.11,25-9.5a48.26,48.26,0,0,0-16-2.12s12.19-22.26,10.6-35.52,1.59-31.28-23.33-23.86c0,0-19.61,5.83-30.22.53,0,0-15.9-37.11,23.33-66.79,0,0,17-12.72-.53-31.28Z"/><path d="M166.5,645.73s23.88,24.4,33.11,27.93,41.88,0,41.88,0,19.35-6,19.35,6-9.18,8.38-17,6.57c0,0-21.11.29-30.18,2s-19.34,8.18-59-31.66S166.5,645.73,166.5,645.73Z"/><path d="M279.3,679.69s-.66-9-5.27-10.62,0-4.61-5.93-4.61-11.25-.54-13.17,3.62-12.19,14.82-4.12,23.71,6.71-1.32,10,0-1.63-1,3.31,1.32,2.63,2.63,5.93,0S279.3,688.33,279.3,679.69Z"/><path d="M162,639.43s32,14.49,37.56,13.17,25.67-11.76,30.62-19.55,8.48-14.38,13.63-9.76,7.45,8.89-4.73,16.8-18.44,16.47-26.68,19.43-10.14,9.55-57.6-5.93S162,639.43,162,639.43Z"/><path d="M247.76,610.61l-10.34,24.92,3.94,1.59,9.46-24.72s6.13-4.66,1.11-7S247.53,608.1,247.76,610.61Z"/><path class="cls-2" d="M210.85,579.47c7.73,3.79,11.3-3.86,11.3-3.86s-11.16-3.72-13.92-6.48C208.23,569.14,205,576.62,210.85,579.47Z"/></g><g id="fire02-2" data-name="fire02"><rect class="cls-1" x="300" y="400" width="300" height="400"/><path d="M479.9,616.92s29.14-.43,40.94-17.84c0,0,8.77,4,8.63,0s-1.87-9.92-1-14.82,5.75-26.32-2-37.69c0,0,13.81-.86,17.4-21.86A19.25,19.25,0,0,1,527,529.18s5-5.47,3.16-11.51c0,0-3.74,5.18-14.82,5a7.79,7.79,0,0,0,.14-7.34s-7.77,7.48-21.29,5.75-51.06.43-56.24,33.8,2.45,43.58,18.41,51.06l-11.65,12.8S399.25,634.29,394,704c0,0,3.12,41.63,10.41,52s20.81,41.63-48.91,3.64c0,0-3.65-2.88-7.32,3.93s5.5,34.08,13.63,34.08,22.27.52,11.14-8.13-12.19-10.75-12.19-10.75,31.45,14.15,39.06,15.73,47.71,16,29.62-41c0,0,30.82.55,43.55-5.45s-6.36,43.68-6.36,43.68-3.71,5.89,8,5.94,39.39,1.11,25-9.5a48.26,48.26,0,0,0-16-2.12s12.19-22.26,10.6-35.52,1.59-31.28-23.33-23.86c0,0-19.61,5.83-30.22.53,0,0-15.9-37.11,23.33-66.79,0,0,17-12.72-.53-31.28Z"/><path d="M465.92,646.95s24.74,23.53,34.08,26.73,41.85-1.5,41.85-1.5,19.12-6.67,19.55,5.34-8.87,8.71-16.74,7.17c0,0-21.09,1-30.09,3s-19,8.87-60-29.54S465.92,646.95,465.92,646.95Z"/><path d="M576.61,677.84s-.66-9-5.27-10.62,0-4.61-5.93-4.61-11.25-.54-13.17,3.62S540,681.06,548.12,690s6.71-1.32,10,0-1.63-1,3.31,1.32,2.63,2.63,5.93,0S576.61,686.48,576.61,677.84Z"/><path d="M468.61,641.81s26.45,23.09,32.18,23.43,28-3.87,34.95-9.91S548,644,551.59,649.91s4.58,10.66-9.37,14.72-22.41,10.46-31.14,10.93-12.46,6.23-53.46-22.26S468.61,641.81,468.61,641.81Z"/><path d="M553.77,644.4,535,663.8l3.09,2.92L556,647.19s7.41-2.09,3.59-6.09S554.48,642,553.77,644.4Z"/><path class="cls-2" d="M510.85,580.16c7.53,4.17,11.3-3.86,11.3-3.86s-11.16-3.72-13.92-6.48C508.23,569.83,504.21,576.49,510.85,580.16Z"/></g><g id="fire03-2" data-name="fire03"><rect class="cls-1" x="600" y="400" width="300" height="400"/><path d="M779.9,616.92s29.14-.43,40.94-17.84c0,0,8.77,4,8.63,0s-1.87-9.92-1-14.82,5.75-26.32-2-37.69c0,0,13.81-.86,17.4-21.86A19.25,19.25,0,0,1,827,529.18s5-5.47,3.16-11.51c0,0-3.74,5.18-14.82,5a7.79,7.79,0,0,0,.14-7.34s-7.77,7.48-21.29,5.75-51.06.43-56.24,33.8,2.45,43.58,18.41,51.06l-11.65,12.8S699.25,634.29,694,704c0,0,3.12,41.63,10.41,52s20.81,41.63-48.91,3.64c0,0-3.65-2.88-7.32,3.93s5.5,34.08,13.63,34.08,22.27.52,11.14-8.13-12.19-10.75-12.19-10.75,31.45,14.15,39.06,15.73,47.71,16,29.62-41c0,0,30.82.55,43.55-5.45s-6.36,43.68-6.36,43.68-3.71,5.89,8,5.94,39.39,1.11,25-9.5a48.26,48.26,0,0,0-16-2.12s12.19-22.26,10.6-35.52,1.59-31.28-23.33-23.86c0,0-19.61,5.83-30.22.53,0,0-15.9-37.11,23.33-66.79,0,0,17-12.72-.53-31.28Z"/><path d="M765.2,647.43s26.22,21.86,35.75,24.45,41.66-4.22,41.66-4.22,18.65-7.9,19.86,4.05S854.19,681,846.24,680c0,0-21,2.42-29.83,5S798,695,754.57,659.39,765.2,647.43,765.2,647.43Z"/><path d="M876.41,673.71s-.66-9-5.27-10.62,0-4.61-5.93-4.61S854,657.94,852,662.1s-12.19,14.82-4.12,23.71,6.71-1.32,10,0-1.63-1,3.31,1.32,2.63,2.63,5.93,0S876.41,682.35,876.41,673.71Z"/><path d="M766.13,661.09s17.23,30.6,22.51,32.83,27.66,5.69,36.25,2.33,15.34-6.58,16.76.18.75,11.58-13.75,10.75-24.61,2.38-33-.1-13.83,1.71-43-38.84S766.13,661.09,766.13,661.09Z"/><path d="M849.33,696.11l-26.42,5.46.9,4.15,25.76-6.08s7.3,2.45,6.4-3S851.28,694.51,849.33,696.11Z"/><polygon points="860.63 695.94 866.96 695.02 868.8 698.71 862.59 696.86 860.63 695.94"/><polygon points="857.11 699.67 860.63 702.86 860.63 705.72 857.11 703.63 857.11 699.67"/><polygon points="849.42 704.4 845.06 707.02 843.85 711.63 848.5 707.02 849.42 704.4"/><polygon points="853.89 709.17 852.96 711.63 854.8 713.32 854.8 711.25 853.89 709.17"/><path class="cls-2" d="M821.34,576.95s-11.16-3.72-13.92-6.48c0,0-4.69,5.79,2.62,10.34S821.34,576.95,821.34,576.95Z"/></g><g id="fire04-2" data-name="fire04"><rect class="cls-1" x="900" y="400" width="300" height="400"/><path d="M1079.9,616.92s29.14-.43,40.94-17.84c0,0,8.77,4,8.63,0s-1.87-9.92-1-14.82,5.75-26.32-2-37.69c0,0,13.81-.86,17.4-21.86a19.25,19.25,0,0,1-16.83,4.46s5-5.47,3.16-11.51c0,0-3.74,5.18-14.82,5a7.79,7.79,0,0,0,.14-7.34s-7.77,7.48-21.29,5.75-51.06.43-56.24,33.8,2.45,43.58,18.41,51.06l-11.65,12.8S999.25,634.29,994,704c0,0,3.12,41.63,10.41,52s20.81,41.63-48.91,3.64c0,0-3.65-2.88-7.32,3.93s5.5,34.08,13.63,34.08,22.27.52,11.14-8.13-12.19-10.75-12.19-10.75,31.45,14.15,39.06,15.73,47.71,16,29.62-41c0,0,30.82.55,43.55-5.45s-6.36,43.68-6.36,43.68-3.71,5.89,8,5.94,39.39,1.11,25-9.5a48.26,48.26,0,0,0-16-2.12s12.19-22.26,10.6-35.52,1.59-31.28-23.33-23.86c0,0-19.61,5.83-30.22.53,0,0-15.9-37.11,23.33-66.79,0,0,17-12.72-.53-31.28Z"/><path d="M1056.9,649s18.93,24.26,25.6,27.38,28.58-2.9,28.58-2.9,12.56-7.69,13.85,5.07-5.36,9.54-10.88,8.15c0,0-14.37,1.77-20.39,4.17s-12.32,10-43.64-29.55S1056.9,649,1056.9,649Z"/><path d="M1140.87,678.81s-.66-9-5.27-10.62,0-4.61-5.93-4.61-11.25-.54-13.17,3.62-12.19,14.82-4.12,23.71,6.71-1.32,10,0-1.63-1,3.31,1.32,2.63,2.63,5.93,0S1140.87,687.45,1140.87,678.81Z"/><path d="M1068.83,661.68s17.77,30.57,23.35,33.34,30.82,19.34,39.89,16.61,13.06-3.64,14.57,3.46-.63,7.62-15.94,5.51-22.65-5.7-31.51-9-14.59.57-45.33-43.78S1068.83,661.68,1068.83,661.68Z"/><path d="M1158.38,720.2,1132.13,714l-.93,4.14,25.91,5.38s5.58,5.3,7.07,0S1160.82,719.58,1158.38,720.2Z"/><path class="cls-2" d="M1161.42,708s.08,5.53,3,7.86,2.51,12.88-3,11-6.47-6-3.09-11.16S1161.2,710.83,1161.42,708Z"/><path class="cls-2" d="M1105.08,573.78s10.34.28,15.85,5c0,0,4.27-9.51-3.17-12.4S1106.32,571,1105.08,573.78Z"/></g></g><g id="walk_sprite"><use width="300" height="400" xlink:href="#pr01"/><use width="300" height="400" transform="translate(300)" xlink:href="#pr02"/><use width="300" height="400" transform="translate(600)" xlink:href="#pr03"/><use width="300" height="400" transform="translate(900)" xlink:href="#pr04"/></g></g></svg>
