<svg xmlns="http://www.w3.org/2000/svg" width="1600" height="900" viewBox="0 0 1600 900"><title>scenarie</title><g id="Forgrund"><path d="M1263.5,970.5c7-7,46-74,55-103l33-21s17-4,30-27,40-25,40-25l23,6s12-20,40-34,17-41,17-41-4-44-18-44-368,33-601-12-560,0-560,0-61,16-109-39-133-104-133-104l22-8,18-26s2-29-9-35-51,0-51,0l-26,14-5,17s-17-105-107-270v752Z"/></g><g id="Forgrund_planter_m.m" data-name="Forgrund_planter m.m"><path d="M1491.73,759.17c.73.19,3.77,5.33-.23,17.33s0,9-2,15,1,2,2,9,5,2,2,7-1,0-2,5-4,3-5-3,3-8,2-10-4-2-4-4,2-2,2-7-2-3-2-7,2-9,0-9-8,0-7,4,4,7,2,11-2,1-2,4,3,7,2,13-3,0-6-2,2-1,0-6-1,1-1-5,5-8,0-6-4-3-5,2-3,5-2,9-2,1,0,4,3,0,2,3-4,5-5,4-2,1-2-6-2-5,0-7,4,3,2-2-4,0-3-5,2,2,0-5S1460,750.84,1491.73,759.17Z"/><path d="M1410,794l-2,7s-2,2,0,5,4,5,5,8,1,0,0,7-3,8-3,10-2,3-3,7,0,5,0,8a7.65,7.65,0,0,1-2,5h-3a3.1,3.1,0,0,0-1-2c-1-1,0-2,0-3v-1s2-2,2-4,0-2-2-4-3,0-2-2,3-2,3-3v-4s0-2,1-2,2-2,2-2,2,0,1-2,0-3-1-4-1,0-1-1-1-1-1-2-3-2-3-2l-1,2c-2,4-2,2-2,4v3c0,2,1,3-1,4l-2,1s-2,2-2,4,1,0,0,2-4,2-4,2,1,1,0-2-2-5-1-6l2-2c1-1,4-2,3-3s-1-1-1-4v-4c0-3-1.88-4.77-.94-5.38S1392,807,1392,806s-1,1,0-1-2-6-2-6Z"/><path d="M1348,846a6.67,6.67,0,0,1-3.57,5c-3.43,2-4.43,3-4.43,9s0,6,2,12,2,7,2,7v2c0,1,1-1,0,2s1,4,0,6,0,3,0,3a2,2,0,0,1-2,2h-2l-1-2s-2,0,0-1,3-2,2-4a18.66,18.66,0,0,0-3-4l1-2a4.4,4.4,0,0,0-1-5c-1-1-2-2-2-3s2-1,0-3-3-3-3-4v-1h0c-1,0-1,2-1,3s2-1,0,2-3,4-4,3,0-2,0-3,2-2,2-2l-1-2s1,0,1-3-1-3,0-3-1-3-1-4,13-15,13-15Z"/><path d="M113,518l-14.78,2.05S92,524,91,526s3,14,3,14,12,6,13,7,12.36,4.22,12.36,4.22S122,548,123,548s7,2,8,0a30.91,30.91,0,0,0,2-8c0-1-3-3-4-5l-4-8Z"/><path d="M332,671l-8-4s-4-2,0-4,8-4,11-3,4,1,3,3S332,671,332,671Z"/><path d="M347,669s4-3,4-3l-9-3s-5.12,2.73-5.56,2.37S340,669,340,669Z"/></g></svg>
