<?xml version="1.0" standalone="no"?>
<!DOCTYPE svg PUBLIC "-//W3C//DTD SVG 20010904//EN"
 "http://www.w3.org/TR/2001/REC-SVG-20010904/DTD/svg10.dtd">
<svg version="1.0" xmlns="http://www.w3.org/2000/svg"
 width="260.000000pt" height="260.000000pt" viewBox="0 0 260.000000 260.000000"
 preserveAspectRatio="xMidYMid meet">
<metadata>
Created by potrace 1.11, written by Peter Selinger 2001-2013
</metadata>
<g transform="translate(0.000000,260.000000) scale(0.100000,-0.100000)"
fill="#000000" stroke="none">
<path d="M921 2074 c-68 -289 -121 -527 -118 -530 3 -3 35 8 72 23 l68 29 158
374 c88 206 183 432 213 503 l54 127 -162 0 -162 0 -123 -526z"/>
<path d="M1566 2578 c-26 -42 -606 -1066 -611 -1080 -4 -10 7 -18 35 -27 22
-6 45 -9 50 -6 12 7 1003 1105 1014 1123 6 9 -43 12 -233 12 -239 0 -241 0
-255 -22z"/>
<path d="M1825 1935 c-423 -283 -773 -521 -777 -528 -9 -13 -11 -107 -3 -107
9 0 1539 652 1548 660 4 3 6 115 5 248 l-3 243 -770 -516z"/>
<path d="M565 1400 c-44 -50 -80 -95 -80 -101 0 -11 335 -379 345 -379 4 0 17
11 30 25 l24 26 18 -23 c17 -23 17 -23 -119 -160 l-136 -136 41 -49 c22 -26
166 -173 319 -326 l278 -277 652 2 651 3 -643 650 -643 650 -126 -125 -125
-124 -26 24 c-24 22 -24 24 -8 42 16 18 15 20 -13 47 -92 90 -347 321 -353
321 -4 0 -43 -41 -86 -90z"/>
</g>
</svg>
