<svg xmlns="http://www.w3.org/2000/svg" xmlns:xlink="http://www.w3.org/1999/xlink" width="60" height="67.84" viewBox="0 0 60 67.84"><defs><style>.cls-1{fill:none;}.cls-2{clip-path:url(#clip-path);}.cls-3,.cls-5{fill:#799fa8;}.cls-4{fill:#fff;}.cls-5{stroke:#799fa8;stroke-miterlimit:10;stroke-width:0.68px;}</style><clipPath id="clip-path"><rect class="cls-1" width="60" height="60" rx="12.59" ry="12.59"/></clipPath></defs><title>Asset 25</title><g id="Layer_2" data-name="Layer 2"><g id="App"><g id="Layer_201" data-name="Layer 201"><g class="cls-2"><rect class="cls-3" width="60" height="60" rx="12.59" ry="12.59"/><path class="cls-4" d="M34.54,4.67a20.81,20.81,0,0,0-21,20.83,11.07,11.07,0,0,1-1.31,5.22L8.4,38A1.88,1.88,0,0,0,10,40.73l3.14.06a.4.4,0,0,1,.38.39v7.29a4.39,4.39,0,0,0,4.38,4.38h5a1,1,0,0,1,1,1V66.3a1.54,1.54,0,0,0,1.54,1.54h20A1.54,1.54,0,0,0,47,66.3V52.7c0-6.18,3.09-12.27,5.92-17.78A20.8,20.8,0,0,0,34.54,4.67Z"/><path class="cls-5" d="M34.52,15.5a7.43,7.43,0,0,0-7.4,6.23A7.19,7.19,0,0,0,29,27.56a7.39,7.39,0,0,1,2,5v2.94a2.19,2.19,0,0,0,2.2,2.16H36a2.18,2.18,0,0,0,2.19-2.16V32.6A7,7,0,0,1,40,27.68a7,7,0,0,0,2-4.93A7.42,7.42,0,0,0,34.52,15.5ZM36,36.57H33.19a1,1,0,0,1-1-1v-1.3h4.92v1.3h0A1,1,0,0,1,36,36.57Zm3.19-9.69A8.09,8.09,0,0,0,37,32.6v.51H32.1V32.6a8.74,8.74,0,0,0-2.31-5.77,6,6,0,0,1-1.57-4.92,6.38,6.38,0,0,1,6.31-5.27,6.25,6.25,0,0,1,6.36,6.11A5.88,5.88,0,0,1,39.21,26.88Z"/><rect class="cls-5" x="33.94" y="11.09" width="1.16" height="2.71"/><polygon class="cls-5" points="41.53 16.32 42.34 17.13 44.32 15.23 43.51 14.42 41.53 16.32"/><rect class="cls-5" x="44.99" y="23.32" width="2.83" height="1.13"/><rect class="cls-5" x="21.22" y="23.32" width="2.83" height="1.13"/><polygon class="cls-5" points="25.51 14.41 24.7 15.22 26.68 17.13 27.49 16.32 25.51 14.41"/></g></g></g></g></svg>
