<svg id="Layer_1" data-name="Layer 1" xmlns="http://www.w3.org/2000/svg" width="286.47" height="272.88" viewBox="0 0 286.47 272.88"><defs><style>.cls-1{fill:gray;stroke:#000;stroke-miterlimit:10;stroke-width:15px;}</style></defs><title>foot</title><path class="cls-1" d="M97.17,54.47l63.12,76.31,60.26-49.71s37.3-31.22,67,13.87l-7.65,9.25-10.52-5.78-8.61,10.41,3.83,8.09-7.65,10.41-7.65-3.47-8.61,9.25,1,11.56-7.65,9.25-5.74-3.47L220.55,162l1,10.41-7.65,9.25-9.56-3.47-8.61,11.56,1,10.41L188,212.86l-6.7-3.47-8.61,10.41v12.72l-23.91,32.37s-4.78,9.25-15.3,0-67-75.15-36.34-64.74L35,129.62l23.91-1.16-21-32.37L72.3,120.37,54.13,70.66S80.91,110,79,105.34,62.74,52.16,62.74,52.16L87.6,75.28s-4.78-32.37-4.78-26.59,22,22,22,22Z" transform="translate(-10.34 -3.62)"/></svg>
