<svg xmlns="http://www.w3.org/2000/svg" xmlns:xlink="http://www.w3.org/1999/xlink" width="1200" height="1600" viewBox="0 0 1200 1600"><defs><style>.cls-1{fill:none;}.cls-2{fill:#fff;}</style><symbol id="sad-2" data-name="sad" viewBox="0 0 300 400"><rect class="cls-1" width="300" height="400"/><path d="M190.7,75.22s11.82-15.78,8.86-30.12c0,0-7.38,11.47-23.63,17.21,0,0,4.43-10-3-17.21,0,0-3,12.91-17.72,20.08,0,0,3-4.3-4.43-11.47,0,0-1.48,8.61-22.15,22.95S88.79,93.86,91.74,124s23.63,31.56,44.31,33l.2,4.92s-22,1.82-27.91,21.9L92.17,269.33S83,286.4,94.29,287.45c15.51,1.43,10.15-17.35,10.15-17.35,3.17-23.53,7.24-32.33,7.24-32.33l-1.22-18.5,4.43,67.41s4.43,41.6-22.15,99c0,0-8.86,10,34,7.17s-13.05-12.21-16-12.21c0,0,25.39-34.46,31.23-84.63,0,0,14.7,28.26,17.27,95.4,0,0,21.89,3.2,37.34,1.61,0,0,13.35-8.11-22-10,0,0,5-63.91-8.29-89.73l-2.7-74,6.61,57.9s1.67,20.74,16,12.37c6.81-4,2.62-14.26-3-18.58-2.55-2-.81-25,1.81-73.2,2.43-44.62-29.54-34.42-29.54-34.42l2.75-7.79s47.26-10,47.26-41.6S193.65,76.65,190.7,75.22Z"/><path class="cls-2" d="M199.63,107.94s.85,10.54-10.38,10.74-10.38-9.15-10.38-9.15S190.8,111.12,199.63,107.94Z"/><path class="cls-2" d="M156.59,110.33s-1.58,11.34-10.27,11.54-10.27-9.75-10.27-9.75S146.9,115.3,156.59,110.33Z"/></symbol><symbol id="happy-2" data-name="happy" viewBox="0 0 300 400"><rect class="cls-1" width="300" height="400"/><path d="M190.9,62.93s11.82-15.78,8.86-30.12c0,0-7.38,11.47-23.63,17.21,0,0,4.43-10-3-17.21,0,0-3,12.91-17.72,20.08,0,0,3-4.3-4.43-11.47,0,0-1.48,8.61-22.15,22.95S89,81.57,91.95,111.69s23.63,31.56,44.31,33V161.9s-17.72,1.43-23.63,21.52L84.56,262.3S62.29,289,87.4,290.42,103.76,268,103.76,268l13.29-48.77h0l4.43,67.41s4.43,41.6-22.15,99c0,0-8.86,10,34,7.17s-13.05-12.21-16-12.21c0,0,25.39-34.46,31.23-84.63,0,0,14.7,28.26,17.27,95.4,0,0,21.89,3.2,37.34,1.61,0,0,13.35-8.11-22-10,0,0,5-63.91-8.29-89.73l-4.12-46.73,19.2,24.38s4.37,21.75,22.09,11.71-7.32-21.75-8.8-24.62S180.56,242.22,185,197.76s-29.54-34.42-29.54-34.42l3-20.08s47.26-10,47.26-41.6S193.86,64.36,190.9,62.93Z"/><path class="cls-2" d="M179.09,93.12s-.77-11,10.74-10.83,9.93,10.83,9.93,10.83A51.68,51.68,0,0,0,179.09,93.12Z"/><path class="cls-2" d="M156.79,93.12s.66-11-10-10.83-10.54,9.32-10.54,9.32S149.43,89.6,156.79,93.12Z"/></symbol><symbol id="fire01" data-name="fire01" viewBox="0 0 300 400"><rect class="cls-1" width="300" height="400"/><path d="M179.9,216.92s29.14-.43,40.94-17.84c0,0,8.77,4,8.63,0s-1.87-9.92-1-14.82,5.75-26.32-2-37.69c0,0,13.81-.86,17.4-21.86A19.25,19.25,0,0,1,227,129.18s5-5.47,3.16-11.51c0,0-3.74,5.18-14.82,5a7.79,7.79,0,0,0,.14-7.34s-7.77,7.48-21.29,5.75-51.06.43-56.24,33.8,2.45,43.58,18.41,51.06l-11.65,12.8S99.25,234.29,94,304c0,0,3.12,41.63,10.41,52s20.81,41.63-48.91,3.64c0,0-3.65-2.88-7.32,3.93s5.5,34.08,13.63,34.08,22.27.52,11.14-8.13S60.8,378.82,60.8,378.82,92.25,393,99.86,394.55s47.71,16,29.62-41c0,0,30.82.55,43.55-5.45s-6.36,43.68-6.36,43.68-3.71,5.89,8,5.94,39.39,1.11,25-9.5a48.26,48.26,0,0,0-16-2.12s12.19-22.26,10.6-35.52,1.59-31.28-23.33-23.86c0,0-19.61,5.83-30.22.53,0,0-15.9-37.11,23.33-66.79,0,0,17-12.72-.53-31.28Z"/><path d="M166.5,245.73s23.88,24.4,33.11,27.93,41.88,0,41.88,0,19.35-6,19.35,6-9.18,8.38-17,6.57c0,0-21.11.29-30.18,2s-19.34,8.18-59-31.66S166.5,245.73,166.5,245.73Z"/><path d="M279.3,279.69s-.66-9-5.27-10.62,0-4.61-5.93-4.61-11.25-.54-13.17,3.62-12.19,14.82-4.12,23.71,6.71-1.32,10,0-1.63-1,3.31,1.32,2.63,2.63,5.93,0S279.3,288.33,279.3,279.69Z"/><path d="M162,239.43s32,14.49,37.56,13.17,25.67-11.76,30.62-19.55,8.48-14.38,13.63-9.76,7.45,8.89-4.73,16.8-18.44,16.47-26.68,19.43-10.14,9.55-57.6-5.93S162,239.43,162,239.43Z"/><path d="M247.76,210.61l-10.34,24.92,3.94,1.59,9.46-24.72s6.13-4.66,1.11-7S247.53,208.1,247.76,210.61Z"/><path class="cls-2" d="M210.85,179.47c7.73,3.79,11.3-3.86,11.3-3.86s-11.16-3.72-13.92-6.48C208.23,169.14,205,176.62,210.85,179.47Z"/></symbol><symbol id="fire02" data-name="fire02" viewBox="0 0 300 400"><rect class="cls-1" width="300" height="400"/><path d="M179.9,216.92s29.14-.43,40.94-17.84c0,0,8.77,4,8.63,0s-1.87-9.92-1-14.82,5.75-26.32-2-37.69c0,0,13.81-.86,17.4-21.86A19.25,19.25,0,0,1,227,129.18s5-5.47,3.16-11.51c0,0-3.74,5.18-14.82,5a7.79,7.79,0,0,0,.14-7.34s-7.77,7.48-21.29,5.75-51.06.43-56.24,33.8,2.45,43.58,18.41,51.06l-11.65,12.8S99.25,234.29,94,304c0,0,3.12,41.63,10.41,52s20.81,41.63-48.91,3.64c0,0-3.65-2.88-7.32,3.93s5.5,34.08,13.63,34.08,22.27.52,11.14-8.13S60.8,378.82,60.8,378.82,92.25,393,99.86,394.55s47.71,16,29.62-41c0,0,30.82.55,43.55-5.45s-6.36,43.68-6.36,43.68-3.71,5.89,8,5.94,39.39,1.11,25-9.5a48.26,48.26,0,0,0-16-2.12s12.19-22.26,10.6-35.52,1.59-31.28-23.33-23.86c0,0-19.61,5.83-30.22.53,0,0-15.9-37.11,23.33-66.79,0,0,17-12.72-.53-31.28Z"/><path d="M165.92,246.95s24.74,23.53,34.08,26.73,41.85-1.5,41.85-1.5,19.12-6.67,19.55,5.34-8.87,8.71-16.74,7.17c0,0-21.09,1-30.09,3s-19,8.87-60-29.54S165.92,246.95,165.92,246.95Z"/><path d="M276.61,277.84s-.66-9-5.27-10.62,0-4.61-5.93-4.61-11.25-.54-13.17,3.62S240,281.06,248.12,290s6.71-1.32,10,0-1.63-1,3.31,1.32,2.63,2.63,5.93,0S276.61,286.48,276.61,277.84Z"/><path d="M168.61,241.81s26.45,23.09,32.18,23.43,28-3.87,34.95-9.91S248,244,251.59,249.91s4.58,10.66-9.37,14.72-22.41,10.46-31.14,10.93-12.46,6.23-53.46-22.26S168.61,241.81,168.61,241.81Z"/><path d="M253.77,244.4,235,263.8l3.09,2.92L256,247.19s7.41-2.09,3.59-6.09S254.48,242,253.77,244.4Z"/><path class="cls-2" d="M210.85,180.16c7.53,4.17,11.3-3.86,11.3-3.86s-11.16-3.72-13.92-6.48C208.23,169.83,204.21,176.49,210.85,180.16Z"/></symbol><symbol id="fire03" data-name="fire03" viewBox="0 0 300 400"><rect class="cls-1" width="300" height="400"/><path d="M179.9,216.92s29.14-.43,40.94-17.84c0,0,8.77,4,8.63,0s-1.87-9.92-1-14.82,5.75-26.32-2-37.69c0,0,13.81-.86,17.4-21.86A19.25,19.25,0,0,1,227,129.18s5-5.47,3.16-11.51c0,0-3.74,5.18-14.82,5a7.79,7.79,0,0,0,.14-7.34s-7.77,7.48-21.29,5.75-51.06.43-56.24,33.8,2.45,43.58,18.41,51.06l-11.65,12.8S99.25,234.29,94,304c0,0,3.12,41.63,10.41,52s20.81,41.63-48.91,3.64c0,0-3.65-2.88-7.32,3.93s5.5,34.08,13.63,34.08,22.27.52,11.14-8.13S60.8,378.82,60.8,378.82,92.25,393,99.86,394.55s47.71,16,29.62-41c0,0,30.82.55,43.55-5.45s-6.36,43.68-6.36,43.68-3.71,5.89,8,5.94,39.39,1.11,25-9.5a48.26,48.26,0,0,0-16-2.12s12.19-22.26,10.6-35.52,1.59-31.28-23.33-23.86c0,0-19.61,5.83-30.22.53,0,0-15.9-37.11,23.33-66.79,0,0,17-12.72-.53-31.28Z"/><path d="M165.2,247.43s26.22,21.86,35.75,24.45,41.66-4.22,41.66-4.22,18.65-7.9,19.86,4.05S254.19,281,246.24,280c0,0-21,2.42-29.83,5S198,295,154.57,259.39,165.2,247.43,165.2,247.43Z"/><path d="M276.41,273.71s-.66-9-5.27-10.62,0-4.61-5.93-4.61S254,257.94,252,262.1s-12.19,14.82-4.12,23.71,6.71-1.32,10,0-1.63-1,3.31,1.32,2.63,2.63,5.93,0S276.41,282.35,276.41,273.71Z"/><path d="M166.13,261.09s17.23,30.6,22.51,32.83,27.66,5.69,36.25,2.33,15.34-6.58,16.76.18.75,11.58-13.75,10.75-24.61,2.38-33-.1-13.83,1.71-43-38.84S166.13,261.09,166.13,261.09Z"/><path d="M249.33,296.11l-26.42,5.46.9,4.15,25.76-6.08s7.3,2.45,6.4-3S251.28,294.51,249.33,296.11Z"/><polygon points="260.63 295.94 266.96 295.02 268.81 298.71 262.58 296.86 260.63 295.94"/><polygon points="257.11 299.67 260.63 302.86 260.63 305.72 257.11 303.63 257.11 299.67"/><polygon points="249.42 304.4 245.06 307.02 243.85 311.63 248.5 307.02 249.42 304.4"/><polygon points="253.89 309.17 252.96 311.63 254.81 313.32 254.81 311.25 253.89 309.17"/><path class="cls-2" d="M221.34,176.95s-11.16-3.72-13.92-6.48c0,0-4.69,5.79,2.62,10.34S221.34,176.95,221.34,176.95Z"/></symbol><symbol id="fire04" data-name="fire04" viewBox="0 0 300 400"><rect class="cls-1" width="300" height="400"/><path d="M179.9,216.92s29.14-.43,40.94-17.84c0,0,8.77,4,8.63,0s-1.87-9.92-1-14.82,5.75-26.32-2-37.69c0,0,13.81-.86,17.4-21.86A19.25,19.25,0,0,1,227,129.18s5-5.47,3.16-11.51c0,0-3.74,5.18-14.82,5a7.79,7.79,0,0,0,.14-7.34s-7.77,7.48-21.29,5.75-51.06.43-56.24,33.8,2.45,43.58,18.41,51.06l-11.65,12.8S99.25,234.29,94,304c0,0,3.12,41.63,10.41,52s20.81,41.63-48.91,3.64c0,0-3.65-2.88-7.32,3.93s5.5,34.08,13.63,34.08,22.27.52,11.14-8.13S60.8,378.82,60.8,378.82,92.25,393,99.86,394.55s47.71,16,29.62-41c0,0,30.82.55,43.55-5.45s-6.36,43.68-6.36,43.68-3.71,5.89,8,5.94,39.39,1.11,25-9.5a48.26,48.26,0,0,0-16-2.12s12.19-22.26,10.6-35.52,1.59-31.28-23.33-23.86c0,0-19.61,5.83-30.22.53,0,0-15.9-37.11,23.33-66.79,0,0,17-12.72-.53-31.28Z"/><path d="M156.9,249s18.93,24.26,25.6,27.38,28.58-2.9,28.58-2.9,12.56-7.69,13.85,5.07-5.36,9.54-10.88,8.15c0,0-14.37,1.77-20.39,4.17s-12.32,10-43.64-29.55S156.9,249,156.9,249Z"/><path d="M240.87,278.81s-.66-9-5.27-10.62,0-4.61-5.93-4.61-11.25-.54-13.17,3.62-12.19,14.82-4.12,23.71,6.71-1.32,10,0-1.63-1,3.31,1.32,2.63,2.63,5.93,0S240.87,287.45,240.87,278.81Z"/><path d="M168.83,261.68s17.77,30.57,23.35,33.34,30.82,19.34,39.89,16.61,13.06-3.64,14.57,3.46-.63,7.62-15.94,5.51-22.65-5.7-31.51-9-14.59.57-45.33-43.78S168.83,261.68,168.83,261.68Z"/><path d="M258.38,320.2,232.13,314l-.93,4.14,25.91,5.38s5.58,5.3,7.07,0S260.82,319.58,258.38,320.2Z"/><path class="cls-2" d="M261.42,308s.08,5.53,3,7.86,2.51,12.88-3,11-6.47-6-3.09-11.16S261.2,310.83,261.42,308Z"/><path class="cls-2" d="M205.08,173.78s10.34.28,15.85,5c0,0,4.27-9.51-3.17-12.4S206.32,171,205.08,173.78Z"/></symbol><symbol id="pr01" data-name="pr01" viewBox="0 0 300 400"><rect class="cls-1" width="300" height="400"/><path d="M159.5,142.5s26-7,34-28c0,0,10,2,8-3s-4-8-5-15-1-24-12-34c0,0,14-6,11-26,0,0-4,8-15,9,0,0,3-7,0-12,0,0-1,5-13,9a7.83,7.83,0,0,0-2-7s-4,8-18,11-47,14-46,43,12.71,45.72,35.71,49.72L128.5,156.5s-24,50-17,110c0,0,2,62-55,84,0,0-5,3-2,9s14,32,14,32,6,6,11,6-4-33-4-33,51-35,58-68c0,0,38,39,42,87,0,0,2,7,8,3s55-25,29-28c0,0-2-2-24,10,0,0-11-67-30-82,0,0-13-84-2-105,0,0,3-17-7-22Z"/><path d="M154,170s9,75,27,95,5,20,4,20-13,7-15-15c0,0-35-54-33-82S154,170,154,170Z"/><path d="M126,162S89,210,81,264c0,0-14,18-2,24s14-15,14-19,12.49-40.49,25-53C118,216,164,173,126,162Z"/><ellipse class="cls-2" cx="181.07" cy="93.28" rx="9" ry="8.75"/></symbol><symbol id="pr02" data-name="pr02" viewBox="0 0 300 400"><rect class="cls-1" width="300" height="400"/><path d="M149.68,163.55l12.63-13.82s26.43-7.66,34-28c0,0,10.33,2.61,8-3a99,99,0,0,1-5-15c-1.34-5.3.2-25.07-12-34,0,0,13.83-5.59,11-26,0,0-3.38,6.68-15,9,0,0,3.22-7.5,0-12,0,0-2.72,5.71-13,9a7,7,0,0,0-2-7s-4.39,8.13-18,11-46.82,12.53-46,43,14.5,48.4,35.42,49.78L129.67,160.2s-3.69.71-5.55,6.62S102,223.29,111.5,266.5L117.31,318s.31,10.67-3.14,18.27-18.4,21.51-18.4,21.51-2.67,4,.45,7.56,35.33,31.37,27.94,12.26A92,92,0,0,0,111,362.31s15.71-13.17,18-19.06c3.78-9.8,11.86-25.16,10.45-38.32-1.36-12.69,11.08,42.8,0,74.92,0,0-6.91,13.12,4.14,14.16s58,7.09,33.16-8.12a100.07,100.07,0,0,0-22.46-2.59s24.52-62.23,1.73-97.24c0,0-10.49-65.76.37-98.45C156.36,187.61,160.5,167.16,149.68,163.55Z"/><path d="M155.91,172.09s-2.07,75.51,12.8,97.93,2,20.52,1,20.37-13.88,5-12.64-17c0,0-26.72-58.54-20.64-85.95S155.91,172.09,155.91,172.09Z"/><path d="M127.17,162S99.58,216,101.6,270.51c0,0-10.47,20.26,2.43,24s11-17.31,10.28-21.24,4.87-42.09,14.87-56.68C129.19,216.55,166.54,165.86,127.17,162Z"/><ellipse class="cls-2" cx="182.19" cy="102.57" rx="9" ry="8.75"/></symbol><symbol id="pr03" data-name="pr03" viewBox="0 0 300 400"><rect class="cls-1" width="300" height="400"/><path d="M159.95,142.45s26.81-8,33.9-28c0,0,9.82,1.82,8-2.62s-4.55-10.91-5-15.29-.84-25.06-12-34c0,0,13.9-5.62,11-26,0,0-5.22,8.8-15,9,0,0,3.31-7.1,0-12,0,0-1.74,5.49-13,9,0,0,.79-5-2-7,0,0-4.55,8.1-18,11s-46.5,12.39-46,43,15.76,48.08,35.42,49.72l-8.42,17.28s-27.58,60.85-17,110c0,0,5.55,18.71,26.49,54.9,0,0,5.46,4.31,1.44,13.52-5,11.44-13.77,20.77-13.77,20.77s-3.26,2.33,1.63,5.93c7.15,5.28,31.73,29.37,24.34,8.72a59.16,59.16,0,0,0-12.5-12.23s29.15-22.94,12.5-70.72c0,0-3.62-90.51,4.87-105.9,0,0,4.47-15.23-7-22Z"/><path d="M130.65,387.48c20.06,14.16-47.2,8.39-47.2,8.39S134,330.58,120.39,283.39c-9.2-31.76,25.14,4.39,25.14,4.39s-3.92,56.57-38.47,96.4C107.06,384.18,124.71,383.28,130.65,387.48Z"/><ellipse class="cls-2" cx="180.52" cy="94.14" rx="9" ry="8.75"/></symbol><symbol id="pr04" data-name="pr04" viewBox="0 0 300 400"><rect class="cls-1" width="300" height="400"/><path d="M151.95,156.47l14-19.95s26.56-7.3,34-28.09c0,0,10,1.77,8-2.91s-4.64-10.73-5-15-1.51-25.82-12-34c0,0,13.45-5.21,11-26a19.46,19.46,0,0,1-15,9s3.14-6.38,0-12c0,0-2.77,6.17-13,9,0,0,.77-5.19-2-7,0,0-5.2,8.82-18,11s-46.77,13.13-46,43,12.46,47.86,32,49l-8.06,15.73-4.53,3.68s-26.78,72.77-15.51,114.58c0,0,13.4,32,36.65,48.24a24.79,24.79,0,0,1,3.48,12.91c0,7.8.87,20.61-.84,37.47,0,0-1.37,4.18,1.61,5.34s39.92,19.23,32.16,3.85c0,0-12.52-8.85-21.54-10.69,0,0,15.49-47.29-5.14-76.61,0,0-12.06-84.3-1.38-105.51C156.82,181.5,163.08,164.07,151.95,156.47Z"/><path d="M120.46,273.35s-4.47,62.81-46,101.17c0,0-4.08,2.62-1.13,6S85,391.93,88.95,396.28s19,2.49,19,2.49,10.34-.94-19.73-20c0,0,53-50,55.61-85.62S120.46,273.35,120.46,273.35Z"/><path d="M158.88,167.48s-5.86,75.31,7.88,98.45,1,20.59,0,20.4-14.12,4.32-11.77-17.65c0,0-23.75-59.81-16.31-86.87S158.88,167.48,158.88,167.48Z"/><path d="M127.49,159.08S99.9,213,101.92,267.6c0,0-10.47,20.26,2.43,24s11-17.31,10.28-21.24,4.86-42.09,14.87-56.68C129.51,213.63,166.86,162.94,127.49,159.08Z"/><ellipse class="cls-2" cx="182.52" cy="84.53" rx="9" ry="8.75"/></symbol></defs><title>sprite</title><g id="Layer_2" data-name="Layer 2"><g id="sad"><use width="300" height="400" transform="translate(0 800)" xlink:href="#sad-2"/></g><g id="happy"><use width="300" height="400" transform="translate(0 1200)" xlink:href="#happy-2"/></g><g id="fire_sprite"><use width="300" height="400" transform="translate(0 400)" xlink:href="#fire01"/><use width="300" height="400" transform="translate(300 400)" xlink:href="#fire02"/><use width="300" height="400" transform="translate(600 400)" xlink:href="#fire03"/><use width="300" height="400" transform="translate(900 400)" xlink:href="#fire04"/></g><g id="walk_sprite"><use width="300" height="400" xlink:href="#pr01"/><use width="300" height="400" transform="translate(300)" xlink:href="#pr02"/><use width="300" height="400" transform="translate(600)" xlink:href="#pr03"/><use width="300" height="400" transform="translate(900)" xlink:href="#pr04"/></g></g></svg>
