<svg xmlns="http://www.w3.org/2000/svg" xmlns:xlink="http://www.w3.org/1999/xlink" width="1200" height="1600" viewBox="0 0 1200 1600"><defs><style>.cls-1{fill:#fff;}.cls-2{fill:none;}</style><symbol id="walk01" data-name="walk01" viewBox="0 0 300 400"><path d="M174,126s21-2,14-15c0,0,15-7,3-22,0,0,9-11-1-22,0,0,11-11-2-19,0,0,2-5-4-9,0,0-8-3-9,1,0,0-19-8-35-3S98.5,54.5,97.75,90.75,109,136,109,136s-32,4-26,206c0,0,40.07-7,62.54,0S210,345,210,345s-15-189-44-206Z"/><path d="M203,338v23l7-4s3-3,7,4,6,11,6,11,3,5-2,7-29,13-29,13-5,2-8-4-32-53-32-53S166,288,203,338Z"/><path d="M89,336l-3,46s-1,7,3,9c7.64,3.82,16,7,25,7h9s5,0,6-6,3-15,3-15,2.08-5.21-4-7.1-6-.9-6-.9l17-33S110,303,89,336Z"/><path d="M178.49,164.13l32,86.63s30.25,26.65-1.45,34.1-17.3-28.24-17.3-28.24l-49.32-71.83S137.89,129.94,178.49,164.13Z"/><path d="M140.68,187.29,93.74,266.82s-3,42.06-27.35,20.43C47,270,77.35,256,77.35,256l24.51-83.62S141.52,134.22,140.68,187.29Z"/><rect class="cls-2" width="300" height="400"/></symbol><symbol id="walk02" data-name="walk02" viewBox="0 0 300 400"><path d="M174,140s21-2,14-15c0,0,15-7,3-22,0,0,9-11-1-22,0,0,11-11-2-19,0,0,2-5-4-9,0,0-8-3-9,1,0,0-19-8-35-3S98.5,68.5,97.75,104.75,109,150,109,150s-32,4-26,206c0,0,40.07-7,62.54,0S210,359,210,359s-15-189-44-206Z"/><path d="M184.1,354.57l-9.45,21,8-.77s4-1.5,4.74,6.52.95,12.49.95,12.49.68,5.79-4.7,5.56-31.78-.07-31.78-.07-5.38-.23-5.65-6.93-7.39-61.47-7.39-61.47S170.92,293.78,184.1,354.57Z"/><path d="M114.26,319,97.48,362s-3.07,6.37.14,9.49c6.13,6,14.38,10.56,21.71,14.24,8,4,8.58,2.72,8.58,2.72s4.77,1.51,7.53-3.9,7.4-13.39,7.4-13.39,3.56-4.33-1.62-8-5.49-2.68-5.49-2.68l26.19-26.31S144.26,293.92,114.26,319Z"/><path d="M176.29,184l27.53,88.15s28.85,28.15-3.18,34S184.8,277,184.8,277L139.19,202.8S137.48,147.79,176.29,184Z"/><path d="M132.43,190.88,100.16,277.4s4.4,41.94-23.34,24.9c-22.12-13.58,5.31-32.69,5.31-32.69L91.6,183S124,138.48,132.43,190.88Z"/><rect class="cls-2" width="300" height="400"/></symbol><symbol id="walk03" data-name="walk03" viewBox="0 0 300 400"><path d="M174,132s21-2,14-15c0,0,15-7,3-22,0,0,9-11-1-22,0,0,11-11-2-19,0,0,2-5-4-9,0,0-8-3-9,1,0,0-19-8-35-3S98.5,60.5,97.75,96.75,109,142,109,142s-32,4-26,206c0,0,40.07-7,62.54,0S210,351,210,351s-15-189-44-206Z"/><path d="M159,346l-19,31.77L148,378s4.12-1,3.89,7.06S152,394,152,394s0,4.67-6,5a90.06,90.06,0,0,1-32-4s-4.57-.32-4-7,0-59,0-59S153.49,284,159,346Z"/><path d="M152.51,318.76l-12.18,44.46s-2.39,6.66,1.13,9.42c6.72,5.28,15.41,9,23.08,11.88,8.42,3.17,8.82,1.81,8.82,1.81s4.9,1,7.08-4.67,6-14.09,6-14.09,3.09-4.68-2.45-7.75-5.74-2.09-5.74-2.09l23.28-28.91S179.71,290.66,152.51,318.76Z"/><path d="M178.4,184.41l14.31,91.23s24.41,32.08-8.13,33.15-11.41-31.09-11.41-31.09l-34.23-80.13S145.32,142.91,178.4,184.41Z"/><path d="M155.43,187.88,123.16,274.4s4.4,41.94-23.34,24.9c-22.12-13.58,5.31-32.69,5.31-32.69L114.6,180S147,135.48,155.43,187.88Z"/><rect class="cls-2" width="300" height="400"/></symbol><symbol id="walk04" data-name="walk04" viewBox="0 0 300 400"><rect class="cls-2" width="300" height="400"/><path d="M174,132s21-2,14-15c0,0,15-7,3-22,0,0,9-11-1-22,0,0,11-11-2-19,0,0,2-5-4-9,0,0-8-3-9,1,0,0-19-8-35-3S98.5,60.5,97.75,96.75,109,142,109,142s-32,4-26,206c0,0,40.07-7,62.54,0S210,351,210,351s-15-189-44-206Z"/><path d="M150,346l-19,31.77L139,378s4.12-1,3.89,7.06S143,394,143,394s0,4.67-6,5a90.06,90.06,0,0,1-32-4s-4.57-.32-4-7,0-59,0-59S144.49,284,150,346Z"/><path d="M155.72,332,165,377.18s.88,7,5.27,7.89c8.38,1.67,17.81,1.06,26,.16,8.95-1,8.68-2.37,8.68-2.37s4.82-1.32,4.21-7.37S208,360.23,208,360.23s.64-5.57-5.69-5.81-6.06.73-6.06.73l7.7-36.31S167.28,294.65,155.72,332Z"/><path d="M185,184.09l19.88,90.18s26.33,30.52-6.08,33.59-13.3-30.33-13.3-30.33l-39.08-77.88S149.46,144.69,185,184.09Z"/><path d="M133.43,193.88,101.16,280.4s4.4,41.94-23.34,24.9c-22.12-13.58,5.31-32.69,5.31-32.69L92.6,186S125,141.48,133.43,193.88Z"/></symbol><symbol id="wave01" data-name="wave01" viewBox="0 0 300 400"><rect class="cls-2" width="300" height="400"/><path d="M168.22,135.74l9.75-9.38s12.14,7.35,8.67-1c0,0,25.73.29,9.75-17.72,0,0,15.33-12.46,0-18.77,0,0,13.31-15.39-2.17-21.89,0,0,12.3-14.53-7.59-17.72,0,0,3.87-10.31-7.59-9.38,0,0,0-9.39-9.75-3.13,0,0-6.13-10.75-15.17-2.09,0,0-6.57-9.65-9.75,2.09,0,0-30.41,6.15-40.1,40.66s8.67,58.38,8.67,58.38-39.81-7.61-59.86-69.68c0,0-8.59-35.07-23.87-24.7S29.69,66.53,34,70.83,21.86,139.09,74,183c0,0,11.93,45.6,12.94,159.13l5.42-1,7.59,49s.88,8.17,10.84,7.3,26-2.09,26-2.09,7.4,0,7.49-6.64.09-14.21.09-14.21-.28-6.07-7.59-5.21l5.42-28.15L153,343.2l5.42,42.74s-3.74,11.91,9.75,11.47,31.43,2.09,31.43,2.09,6.48,1.5,7.59-5.21,2.17-13.55,2.17-13.55,0-5.84-6.5-6.26-5.42,0-5.42,0l8.67-29.19h7.59s-8.6-123.91,0-138.2,48.24-34.53,51-41.73S280.67,167,268,93.27c0,0,9.23-34-13.8-29.12s-8.91,29.79-8.91,29.79,9.31,54.49-31.27,54.77a29.65,29.65,0,0,1-12.81-2.85C194.86,142.87,182.29,137.67,168.22,135.74Z"/><circle class="cls-1" cx="182.6" cy="81.55" r="7.59"/><circle class="cls-1" cx="160.31" cy="81.64" r="7.68"/></symbol><symbol id="wave02" data-name="wave02" viewBox="0 0 300 399.64"><rect class="cls-2" width="300" height="399.64"/><path d="M168.22,135.74l9.75-9.38s12.14,7.35,8.67-1c0,0,25.73.29,9.75-17.72,0,0,15.33-12.46,0-18.77,0,0,13.31-15.39-2.17-21.89,0,0,12.3-14.53-7.59-17.72,0,0,3.87-10.31-7.59-9.38,0,0,0-9.39-9.75-3.13,0,0-6.13-10.75-15.17-2.09,0,0-6.57-9.65-9.75,2.09,0,0-30.41,6.15-40.1,40.66s8.67,58.38,8.67,58.38S79.9,145.07,74.45,66.87c0,0-8.59-35.07-23.87-24.7s.48,25.18,4.77,29.47S21.86,139.09,74,183c0,0,11.93,45.6,12.94,159.13l5.42-1,7.59,49s.88,8.17,10.84,7.3,26-2.09,26-2.09,7.4,0,7.49-6.64.09-14.21.09-14.21-.28-6.07-7.59-5.21l5.42-28.15L153,343.2l5.42,42.74s-3.74,11.91,9.75,11.47,31.43,2.09,31.43,2.09,6.48,1.5,7.59-5.21,2.17-13.55,2.17-13.55,0-5.84-6.5-6.26-5.42,0-5.42,0l8.67-29.19h7.59s-8.6-123.91,0-138.2,56.67-22,59.42-29.17,15.95,1.59,3.3-72.08c0,0,9.23-34-13.8-29.12s-8.91,29.79-8.91,29.79,1.19,60.58-39.7,42.21c-4-1.81-8.81-1-12.81-2.85C194.86,142.87,182.29,137.67,168.22,135.74Z"/><circle class="cls-1" cx="182.6" cy="81.47" r="7.59"/><circle class="cls-1" cx="160.31" cy="81.55" r="7.68"/></symbol><symbol id="wave03" data-name="wave03" viewBox="0 0 300 400"><rect class="cls-2" width="300" height="400"/><path d="M168.22,135.74l9.75-9.38s12.14,7.35,8.67-1c0,0,25.73.29,9.75-17.72,0,0,15.33-12.46,0-18.77,0,0,13.31-15.39-2.17-21.89,0,0,12.3-14.53-7.59-17.72,0,0,3.87-10.31-7.59-9.38,0,0,0-9.39-9.75-3.13,0,0-6.13-10.75-15.17-2.09,0,0-6.57-9.65-9.75,2.09,0,0-30.41,6.15-40.1,40.66s8.67,58.38,8.67,58.38-28.79,21-25.32-66.91c0,0,1-29.18-13.68-25.2-17.83,4.82-9.72,25.68-5.42,30S21.86,139.09,74,183c0,0,11.93,45.6,12.94,159.13l5.42-1,7.59,49s.88,8.17,10.84,7.3,26-2.09,26-2.09,7.4,0,7.49-6.64.09-14.21.09-14.21-.28-6.07-7.59-5.21l5.42-28.15L153,343.2l5.42,42.74s-3.74,11.91,9.75,11.47,31.43,2.09,31.43,2.09,6.48,1.5,7.59-5.21,2.17-13.55,2.17-13.55,0-5.84-6.5-6.26-5.42,0-5.42,0l8.67-29.19h7.59s-8.6-123.91,0-138.2,57.51-12.08,63.64-18.16c5.11-5.07,15.95,1.59,3.3-72.08,0,0,9.23-34-13.8-29.12S258,117.52,258,117.52s-3,49.56-43.92,31.2c-4-1.81-8.81-1-12.81-2.85C194.86,142.87,182.29,137.67,168.22,135.74Z"/><circle class="cls-1" cx="182.6" cy="81.38" r="7.59"/><circle class="cls-1" cx="160.31" cy="81.47" r="7.68"/></symbol><symbol id="wave04" data-name="wave04" viewBox="0 0 300 400"><rect class="cls-2" width="300" height="400"/><path d="M168.22,135.74l9.75-9.38s12.14,7.35,8.67-1c0,0,25.73.29,9.75-17.72,0,0,15.33-12.46,0-18.77,0,0,13.31-15.39-2.17-21.89,0,0,12.3-14.53-7.59-17.72,0,0,3.87-10.31-7.59-9.38,0,0,0-9.39-9.75-3.13,0,0-6.13-10.75-15.17-2.09,0,0-6.57-9.65-9.75,2.09,0,0-30.41,6.15-40.1,40.66s8.67,58.38,8.67,58.38S79.9,145.07,74.45,66.87c0,0-8.59-35.07-23.87-24.7s.48,25.18,4.77,29.47S21.86,139.09,74,183c0,0,11.93,45.6,12.94,159.13l5.42-1,7.59,49s.88,8.17,10.84,7.3,26-2.09,26-2.09,7.4,0,7.49-6.64.09-14.21.09-14.21-.28-6.07-7.59-5.21l5.42-28.15L153,343.2l5.42,42.74s-3.74,11.91,9.75,11.47,31.43,2.09,31.43,2.09,6.48,1.5,7.59-5.21,2.17-13.55,2.17-13.55,0-5.84-6.5-6.26-5.42,0-5.42,0l8.67-29.19h7.59s-8.6-123.91,0-138.2,56.67-22,59.42-29.17,15.95,1.59,3.3-72.08c0,0,9.23-34-13.8-29.12s-8.91,29.79-8.91,29.79,1.19,60.58-39.7,42.21c-4-1.81-8.81-1-12.81-2.85C194.86,142.87,182.29,137.67,168.22,135.74Z"/><circle class="cls-1" cx="182.6" cy="81.55" r="7.59"/><circle class="cls-1" cx="160.31" cy="81.64" r="7.68"/></symbol><symbol id="sad" data-name="sad" viewBox="0 0 300 400.1"><path d="M177.94,126.36s11.92,7.3,8.67-1c0,0,26,0,9.75-17.72,0,0,15.17-12.51,0-18.77,0,0,13-15.64-2.17-21.89,0,0,11.92-14.6-7.59-17.72,0,0,3.25-10.43-7.59-9.38,0,0,0-9.38-9.75-3.13,0,0-6.5-10.43-15.17-2.09,0,0-6.5-9.38-9.75,2.09,0,0-30.34,6.26-40.1,40.66s8.67,58.38,8.67,58.38S53.31,154.5,68.48,274.39c0,0-30.34,32.32,17.34,40.66l1.08,27.11,5.42-1,7.59,49s0,8.34,10.84,7.3,26-2.09,26-2.09,7.59,1,7.59-8.34V374.48s1.08-3.13-7.59-5.21l5.42-28.15L153,343.2s6.5,35.45,5.42,42.74,2.17,12.51,9.75,11.47,31.43,2.09,31.43,2.09,6.5,1,7.59-5.21,2.17-13.55,2.17-13.55-1.08-6.26-6.5-6.26h-5.42l8.67-29.19h7.59V287.95s9.75,31.28,27.09,16.68,4.33-39.62,0-39.62c0,0-17.34-41.7-19.51-84.44,0,0-1.08-36.49-53.1-44.83Z"/><path class="cls-1" d="M151,82.28s9.9.18,15.47-4.07c0,0,4.35,8.94-5.21,11.63S151,82.28,151,82.28Z"/><path class="cls-1" d="M176.49,78.21s5.67,4.42,15.18,2.56c0,0-.83,9.05-9.09,7.66S176.49,78.21,176.49,78.21Z"/><rect class="cls-2" width="300" height="400.1"/></symbol><symbol id="happy-2" data-name="happy" viewBox="0 0 300 400"><path d="M181,126.36s11.92,7.3,8.67-1c0,0,26,0,9.75-17.72,0,0,15.17-12.51,0-18.77,0,0,13-15.64-2.17-21.89,0,0,11.92-14.6-7.59-17.72,0,0,3.25-10.43-7.59-9.38,0,0,0-9.38-9.75-3.13,0,0-6.5-10.43-15.17-2.09,0,0-6.5-9.38-9.75,2.09,0,0-30.34,6.26-40.1,40.66S116,135.74,116,135.74,56.4,154.5,71.57,274.39c0,0-30.34,32.32,17.34,40.66L90,342.16l5.42-1,7.59,49s0,8.34,10.84,7.3,26-2.09,26-2.09,7.59,1,7.59-8.34V374.48s1.08-3.13-7.59-5.21l5.42-28.15,10.84,2.09s6.5,35.45,5.42,42.74,2.17,12.51,9.75,11.47,31.43,2.09,31.43,2.09,6.5,1,7.59-5.21,2.17-13.55,2.17-13.55-1.08-6.26-6.5-6.26h-5.42l8.67-29.19h7.59V287.95s9.75,31.28,27.09,16.68,4.33-39.62,0-39.62c0,0-17.34-41.7-19.51-84.44,0,0-1.08-36.49-53.1-44.83Z"/><path class="cls-1" d="M171,85.08s-9.5-2.79-16-.17c0,0-1.83-9.78,8.11-9.84S171,85.08,171,85.08Z"/><path class="cls-1" d="M193,85.08s-6.31-3.45-15.39-.06c0,0-.65-9.07,7.73-9S193,85.08,193,85.08Z"/><rect class="cls-2" width="300" height="400"/></symbol></defs><title>redder_sprite</title><g id="Layer_2" data-name="Layer 2"><g id="walk"><g id="walking_sprite"><use width="300" height="400" xlink:href="#walk01"/><use width="300" height="400" transform="translate(300)" xlink:href="#walk02"/><use width="300" height="400" transform="translate(600)" xlink:href="#walk03"/><use width="300" height="400" transform="translate(900)" xlink:href="#walk04"/></g></g><g id="wave"><g id="wave_cycle"><use width="300" height="400" transform="translate(0 400)" xlink:href="#wave01"/><use width="300" height="399.64" transform="translate(300 400.18)" xlink:href="#wave02"/><use width="300" height="400" transform="translate(600 400)" xlink:href="#wave03"/><use width="300" height="400" transform="translate(900 400)" xlink:href="#wave04"/></g></g><g id="happy"><use width="300" height="400.1" transform="translate(0 799.95)" xlink:href="#sad"/><use width="300" height="400" transform="translate(0 1200)" xlink:href="#happy-2"/></g></g></svg>
