<svg xmlns="http://www.w3.org/2000/svg" xmlns:xlink="http://www.w3.org/1999/xlink" width="1200" height="400" viewBox="0 0 1200 400"><defs><style>.cls-1{fill:none;}.cls-2{fill:#fff;}</style><symbol id="pr01" data-name="pr01" viewBox="0 0 300 400"><rect class="cls-1" width="300" height="400"/><path d="M159.5,142.5s26-7,34-28c0,0,10,2,8-3s-4-8-5-15-1-24-12-34c0,0,14-6,11-26,0,0-4,8-15,9,0,0,3-7,0-12,0,0-1,5-13,9a7.83,7.83,0,0,0-2-7s-4,8-18,11-47,14-46,43,12.71,45.72,35.71,49.72L128.5,156.5s-24,50-17,110c0,0,2,62-55,84,0,0-5,3-2,9s14,32,14,32,6,6,11,6-4-33-4-33,51-35,58-68c0,0,38,39,42,87,0,0,2,7,8,3s55-25,29-28c0,0-2-2-24,10,0,0-11-67-30-82,0,0-13-84-2-105,0,0,3-17-7-22Z"/><path d="M154,170s9,75,27,95,5,20,4,20-13,7-15-15c0,0-35-54-33-82S154,170,154,170Z"/><path d="M126,162S89,210,81,264c0,0-14,18-2,24s14-15,14-19,12.49-40.49,25-53C118,216,164,173,126,162Z"/><ellipse class="cls-2" cx="181.07" cy="93.28" rx="9" ry="8.75"/></symbol><symbol id="pr02" data-name="pr02" viewBox="0 0 300 400"><rect class="cls-1" width="300" height="400"/><path d="M149.68,163.55l12.63-13.82s26.43-7.66,34-28c0,0,10.33,2.61,8-3a99,99,0,0,1-5-15c-1.34-5.3.2-25.07-12-34,0,0,13.83-5.59,11-26,0,0-3.38,6.68-15,9,0,0,3.22-7.5,0-12,0,0-2.72,5.71-13,9a7,7,0,0,0-2-7s-4.39,8.13-18,11-46.82,12.53-46,43,14.5,48.4,35.42,49.78L129.67,160.2s-3.69.71-5.55,6.62S102,223.29,111.5,266.5L117.31,318s.31,10.67-3.14,18.27-18.4,21.51-18.4,21.51-2.67,4,.45,7.56,35.33,31.37,27.94,12.26A92,92,0,0,0,111,362.31s15.71-13.17,18-19.06c3.78-9.8,11.86-25.16,10.45-38.32-1.36-12.69,11.08,42.8,0,74.92,0,0-6.91,13.12,4.14,14.16s58,7.09,33.16-8.12a100.07,100.07,0,0,0-22.46-2.59s24.52-62.23,1.73-97.24c0,0-10.49-65.76.37-98.45C156.36,187.61,160.5,167.16,149.68,163.55Z"/><path d="M155.91,172.09s-2.07,75.51,12.8,97.93,2,20.52,1,20.37-13.88,5-12.64-17c0,0-26.72-58.54-20.64-85.95S155.91,172.09,155.91,172.09Z"/><path d="M127.17,162S99.58,216,101.6,270.51c0,0-10.47,20.26,2.43,24s11-17.31,10.28-21.24,4.87-42.09,14.87-56.68C129.19,216.55,166.54,165.86,127.17,162Z"/><ellipse class="cls-2" cx="182.19" cy="102.57" rx="9" ry="8.75"/></symbol><symbol id="pr03" data-name="pr03" viewBox="0 0 300 400"><rect class="cls-1" width="300" height="400"/><path d="M159.95,142.45s26.81-8,33.9-28c0,0,9.82,1.82,8-2.62s-4.55-10.91-5-15.29-.84-25.06-12-34c0,0,13.9-5.62,11-26,0,0-5.22,8.8-15,9,0,0,3.31-7.1,0-12,0,0-1.74,5.49-13,9,0,0,.79-5-2-7,0,0-4.55,8.1-18,11s-46.5,12.39-46,43,15.76,48.08,35.42,49.72l-8.42,17.28s-27.58,60.85-17,110c0,0,5.55,18.71,26.49,54.9,0,0,5.46,4.31,1.44,13.52-5,11.44-11.1,22-11.1,22s-3.56,3.48,1.32,7.09c7.15,5.28,31.35,30.29,24,9.64,0,0-4.77-9.09-12.14-14.22,0,0,28.18-22.72,12.85-74.06,0,0-6.31-88.44,2.19-103.83,0,0,4.47-15.23-7-22Z"/><path d="M130.65,387.48c20.06,14.16-47.2,8.39-47.2,8.39s41.08-79.68,36.93-112.49,25.14,4.39,25.14,4.39-16.74,53.7-40.91,96.47C104.61,384.25,124.71,383.28,130.65,387.48Z"/><ellipse class="cls-2" cx="180.52" cy="94.14" rx="9" ry="8.75"/></symbol><symbol id="pr04" data-name="pr04" viewBox="0 0 300 400"><rect class="cls-1" width="300" height="400"/><path d="M151.95,156.47l14-19.95s26.56-7.3,34-28.09c0,0,10,1.77,8-2.91s-4.64-10.73-5-15-1.51-25.82-12-34c0,0,13.45-5.21,11-26a19.46,19.46,0,0,1-15,9s3.14-6.38,0-12c0,0-2.77,6.17-13,9,0,0,.77-5.19-2-7,0,0-5.2,8.82-18,11s-46.77,13.13-46,43,12.46,47.86,32,49l-8.06,15.73-4.53,3.68s-26.78,72.77-15.51,114.58c0,0,13.4,32,36.65,48.24a24.79,24.79,0,0,1,3.48,12.91c0,7.8.87,20.61-.84,37.47,0,0-1.37,4.18,1.61,5.34s39.92,19.23,32.16,3.85c0,0-12.52-8.85-21.54-10.69,0,0,15.49-47.29-5.14-76.61,0,0-12.06-84.3-1.38-105.51C156.82,181.5,163.08,164.07,151.95,156.47Z"/><path d="M120.46,273.35s-4.47,62.81-46,101.17c0,0-4.08,2.62-1.13,6S85,391.93,88.95,396.28s19,2.49,19,2.49,10.34-.94-19.73-20c0,0,53-50,55.61-85.62S120.46,273.35,120.46,273.35Z"/><path d="M158.88,167.48s-5.86,75.31,7.88,98.45,1,20.59,0,20.4-14.12,4.32-11.77-17.65c0,0-23.75-59.81-16.31-86.87S158.88,167.48,158.88,167.48Z"/><path d="M127.49,159.08S99.9,213,101.92,267.6c0,0-10.47,20.26,2.43,24s11-17.31,10.28-21.24,4.86-42.09,14.87-56.68C129.51,213.63,166.86,162.94,127.49,159.08Z"/><ellipse class="cls-2" cx="182.52" cy="84.53" rx="9" ry="8.75"/></symbol></defs><title>walking_sprite</title><g id="Layer_2" data-name="Layer 2"><g id="pro04"><use width="300" height="400" xlink:href="#pr01"/><use width="300" height="400" transform="translate(300)" xlink:href="#pr02"/><use width="300" height="400" transform="translate(600)" xlink:href="#pr03"/><use width="300" height="400" transform="translate(900)" xlink:href="#pr04"/></g></g></svg>
